<?xml version="1.0" encoding="utf-8"?>
<!-- Generator: Adobe Illustrator 26.0.1, SVG Export Plug-In . SVG Version: 6.00 Build 0)  -->
<svg version="1.1" id="Layer_1" xmlns="http://www.w3.org/2000/svg" xmlns:xlink="http://www.w3.org/1999/xlink" x="0px" y="0px"
	 viewBox="0 0 595.28 841.89" style="enable-background:new 0 0 595.28 841.89;" xml:space="preserve">
<style type="text/css">
	.st0{fill:#C7C8C9;stroke:#000000;stroke-width:0.5;stroke-miterlimit:10;}
	.st1{fill:#DCDCDD;stroke:#000000;stroke-miterlimit:10;}
	.st2{fill:#F2F3F4;stroke:#000000;stroke-miterlimit:10;}
</style>
<g>
	<path class="st0" d="M284.97,131.95c9.01,19.31,3.69,36.1-8.84,51.63c-8.1,40.98-16.51,81.95-4,123.62
		c5.63,18.75,8.49,41.23,37.46,28.17c19.23-25.1,25.14-53.58,25.41-85.11c0.09-13.34-2.51-26.28-6.21-38.84
		c-3.67-12.44-8.34-24.54-12.36-36.87c-2.1-6.45-3.9-12.99-5.34-19.62c-0.72-3.34-1.35-6.71-1.88-10.09
		c-0.49-3.16-0.12-6.55-1.54-9.5l-8.82-14.9c-3.27-5.25-7.21-10.29-12.19-14.02c-5.3-3.96-11.79-5.95-18.33-4.21
		c-0.87,0.23-1.72,0.52-2.55,0.85c-17.67,7.08-18.84,20.47-16.75,36.27C262.03,141.99,268.64,112.77,284.97,131.95"/>
	<path class="st1" d="M256.86,131.6c3.81-4.15,7.79-8.86,13.09-11.13c3.05-1.3,6.34-1.48,9.51-0.5c4.05,1.25,9.08,4.43,11.59,7.88
		c15.09,20.79,8.51,41.08-1.26,61.33c-18.52,37.23-24.2,75.49-9.94,115.75c1.55,4.39,3.24,9.91,7.25,12.72
		c2.69,1.88,6.5,1.89,9.51,0.87c3.73-1.26,5.69-4.59,7.85-7.67c5.01-7.14,8.97-15,11.61-23.31c5.04-15.83,5.12-32.64,3.15-49
		c-1.33-11.01-3.52-21.89-5.81-32.74c-1.99-9.4-5.83-18.28-8.68-27.42c-2.83-9.05-3.31-18.98-1.15-28.39
		c1.25-5.46,2.42-9.87,5.53-14.47c1.19-1.76,4.07-2.61,6-3.3c2.07-0.75,4.22-1.26,6.41-1.45c3.85-0.33,7.68,0.42,11.18,2.03
		c7.29,3.35,12.86,9.6,18.25,15.35c0.42,0.45,0.84,0.9,1.27,1.35c35.03,37.24,49.01,83.11,52.43,133.3
		c5.42,79.42-4.79,159.15,4.67,238.48c-19.41,25.79-43.33,12.61-66.29,8c-27.31-18.08-56.08-15.51-85.3-5.95
		c-26.3,2.65-45.22,30.17-74.52,22.79c16.27-102.38,11.62-206.91,31.1-309c3.5-18.36,8.18-36.51,14.53-54.1
		c2.85-7.9,6.04-15.69,9.59-23.3c1.78-3.83,3.66-7.62,5.63-11.36L256.86,131.6z"/>
	<path class="st2" d="M409.33,521.25c17.82,45.02,37.47,89.61,36.37,139.62c-1.43,65.11-55.81,99.04-112.31,67.51
		c-31.02-17.31-53.35-29-87.73,0.36c-36.42,31.12-95.38-6.89-96.11-58.61c-0.62-44.07,11.74-85.66,33.66-124.04
		C183.22,546.09,250.01,457.2,409.33,521.25z"/>
</g>
</svg>
