<?xml version="1.0" encoding="utf-8"?>
<!-- Generator: Adobe Illustrator 26.0.1, SVG Export Plug-In . SVG Version: 6.00 Build 0)  -->
<svg version="1.1" id="Layer_1" xmlns="http://www.w3.org/2000/svg" xmlns:xlink="http://www.w3.org/1999/xlink" x="0px" y="0px"
	 viewBox="0 0 612 792" style="enable-background:new 0 0 612 792;" xml:space="preserve">
<style type="text/css">
	.st0{fill:#DBDCDD;stroke:#000000;stroke-miterlimit:10;}
	.st1{fill:#F2F2F3;stroke:#000000;stroke-miterlimit:10;}
</style>
<path class="st0" d="M249.59,505.55c7.21-96.33,5.91-193.21,18.29-289.18c2.9-22.46,11.85-42.89,28.83-58.61
	c4.88-4.52,10.65-10.42,17.73-7.49c7.15,2.95,7.6,10.79,6.86,17.84c-10.67,100.87,28.08,195.65,35.38,294.31
	c0.94,12.72,3.3,25.33,5.01,37.99c-20.66-2.87-23.25-24.85-36.66-35.39c-10.57-11.96-21.87-16.65-35-3.73
	c-9.54,7.48-15.71,17.4-21.45,28C264.53,496.78,262.42,508.02,249.59,505.55z"/>
<path class="st1" d="M284.85,454.09c7.29-3.27,15.16-5.06,22.42-4.58c12.54,0.83,20.82,9.54,28.83,18.18
	c10.32,11.12,21.52,23.65,28,37.48c6.09,13,8.47,27.54,10.51,41.64c5.98,41.35-7.5,60.47-48.18,68.38
	c-4.94,0.96-10.03,1.11-15.02,1.86c-62.24,9.31-83.32-12.43-71.81-74.77c2.2-24.46,8.8-52.24,23.96-71.95
	C268.64,463.73,276.36,457.9,284.85,454.09z"/>
</svg>
