<?xml version="1.0" encoding="utf-8"?>
<!-- Generator: Adobe Illustrator 26.0.1, SVG Export Plug-In . SVG Version: 6.00 Build 0)  -->
<svg version="1.1" id="Layer_1" xmlns="http://www.w3.org/2000/svg" xmlns:xlink="http://www.w3.org/1999/xlink" x="0px" y="0px"
	 viewBox="0 0 612 792" style="enable-background:new 0 0 612 792;" xml:space="preserve">
<style type="text/css">
	.st0{fill:#DCDDDD;stroke:#000000;stroke-miterlimit:10;}
	.st1{fill:#F3F3F4;stroke:#000000;stroke-miterlimit:10;}
</style>
<path class="st0" d="M310.49,139.8c1.78-3.96,6.1-6.3,10.28-5.21c16.05,4.15,17.5,20.84,19.25,34.27
	c5.14,39.64,7.75,79.63,11.31,119.48c5.72,64.07,3.05,128.78,14.22,192.43c-15.14-12.08-15.06-38.07-37.84-43.18
	c-15.7-14.58-30.42-5.01-45.24,1.91c-7.27,8.11-9.35,20.54-20.39,25.51c26.38-96.3,21.04-197.01,39.2-294.47
	C303.26,159.82,306.09,149.55,310.49,139.8z"/>
<path class="st1" d="M369.59,479.67c-2.3-5.15-4.87-10.19-7.67-15.1c-7.74-13.58-16.05-27.58-31.36-33.28
	c-15.88-6.81-31.24-4.08-46.36,2.68c-11.52,5.15-16.99,20.71-22.47,31.15c-13.04,24.82-22.48,50.24-28.79,77.56
	c-3.5,15.16-4.25,31.8,2.32,46.26c8.62,18.97,29.96,34.84,48.63,43c20.19,8.82,44,2.5,61.46-9.57
	c35.12-24.26,41.89-73.86,33.95-112.81C377.2,499.23,373.87,489.25,369.59,479.67z"/>
</svg>
