<?xml version="1.0" encoding="utf-8"?>
<!-- Generator: Adobe Illustrator 26.0.1, SVG Export Plug-In . SVG Version: 6.00 Build 0)  -->
<svg version="1.1" id="Layer_1" xmlns="http://www.w3.org/2000/svg" xmlns:xlink="http://www.w3.org/1999/xlink" x="0px" y="0px"
	 viewBox="0 0 612 792" style="enable-background:new 0 0 612 792;" xml:space="preserve">
<style type="text/css">
	.st0{fill:#DCDCDD;stroke:#000000;stroke-miterlimit:10;}
	.st1{fill:#F3F3F4;stroke:#000000;stroke-miterlimit:10;}
</style>
<path class="st0" d="M255.15,479.85c-6.48,11.62-10.45,25.33-24.23,30.94c11.99-48.79,25.95-97.67,34.72-147.03
	c12.75-71.73,7.15-144.91,11.47-217.36c0.75-12.53-5.11-31.86,12.75-34.69c16.25-2.57,23.95,14.11,30.68,27.42
	c13.53,26.73,17.97,55.95,21.33,85.1c11.31,98.1,28.14,195.3,45.95,292.36c-12.57-13.68-25.15-27.36-37.72-41.04
	C321.05,452.79,292.79,454.08,255.15,479.85z"/>
<path class="st1" d="M383.08,618.89c-17.92,49.32-81.69,54.56-112.04,32.97c-18.56-13.21-36.01-29.44-46.84-49.75
	c-11.94-22.41-10.94-47.41-2.48-70.8c4.07-11.26,9.77-21.58,15.26-32.15c4.61-8.88,9.77-18.55,17.45-25.21
	c7.83-6.78,19.48-11.01,29.36-13.78c21.42-6.02,43.79-3.57,64.13,5.09c14.24,6.06,23.35,19.37,30.46,32.52
	c9.85,18.23,18.55,35.69,18.39,56.9C396.61,576.73,390.55,598.32,383.08,618.89z"/>
</svg>
