<?xml version="1.0" encoding="utf-8"?>
<!-- Generator: Adobe Illustrator 26.0.1, SVG Export Plug-In . SVG Version: 6.00 Build 0)  -->
<svg version="1.1" id="Layer_1" xmlns="http://www.w3.org/2000/svg" xmlns:xlink="http://www.w3.org/1999/xlink" x="0px" y="0px"
	 viewBox="0 0 612 792" style="enable-background:new 0 0 612 792;" xml:space="preserve">
<style type="text/css">
	.st0{fill:#DCDDDD;stroke:#000000;stroke-miterlimit:10;}
	.st1{fill:#F2F3F3;stroke:#000000;stroke-miterlimit:10;}
</style>
<path class="st0" d="M261.48,509.57c-2.7,17.63-16.88,27.46-27.04,40.03c2.13-48.3,17.77-94.22,24.83-141.68
	c6.87-46.21,10.3-92.85,12.08-139.51c1.18-31.08,2.88-62.16,2.91-93.28c0.01-15.31-0.76-30.51-1.47-45.79
	c-0.45-9.66,0.54-18.9,11.71-21.18c15.04-3.07,20.93,12.92,25.79,23.65c21.56,47.72,22.48,100.14,31.98,150.61
	c13.99,74.29,29.16,189.66,35.29,265.04c-3.08,19.78-11.66,5.53-16.83,2.12C321.05,523.43,301.11,482.76,261.48,509.57z"/>
<path class="st1" d="M392.92,637.54c-7.33,59.59-74.57,77.57-121.46,59.66c-30.73-11.74-50.67-36.82-53.4-69.81
	c-1.74-21.02,2.27-42.2,8.93-62.08c6.39-19.09,14.77-39.44,27.57-55.18c9.94-12.22,28.19-18.93,43.25-22.48
	c11.74-2.77,24.05-2.82,35.29,1.94c17.47,7.4,29.63,23.16,38.89,39.13c10.98,18.94,18.44,38.45,20.94,60.36
	C394.76,605.11,394.89,621.52,392.92,637.54z"/>
</svg>
