<?xml version="1.0" encoding="utf-8"?>
<!-- Generator: Adobe Illustrator 26.0.1, SVG Export Plug-In . SVG Version: 6.00 Build 0)  -->
<svg version="1.1" id="Layer_1" xmlns="http://www.w3.org/2000/svg" xmlns:xlink="http://www.w3.org/1999/xlink" x="0px" y="0px"
	 viewBox="0 0 612 792" style="enable-background:new 0 0 612 792;" xml:space="preserve">
<style type="text/css">
	.st0{fill:#C7C8C9;stroke:#000000;stroke-miterlimit:10;}
	.st1{fill:#DCDDDE;stroke:#000000;stroke-miterlimit:10;}
	.st2{fill:#F3F3F4;stroke:#000000;stroke-miterlimit:10;}
</style>
<path class="st0" d="M341.72,237.95l-11.09-84.04c-3.56-12.54-4.88-29.2-20.41-31.79c-15.81-2.63-21.74,12.86-29.12,23.86
	c-17.46,69.9-7.8,137.49,17.28,203.78c27.44,13.91,24.76-8.96,28.78-23.64C332.68,296.34,336.47,267.78,341.72,237.95"/>
<path class="st1" d="M355.79,191.8c0.3-5.76,0.12-11.6,1.02-17.27c1.51-9.5-5.93-24.2,8.66-26.71c13.14-2.26,19.65,10.52,24.04,21.3
	c15.64,38.45,17.67,78.72,12.48,119.23c-8.07,63.04-2.95,125.5,5.41,187.97c-41.21,5.96-82.41,11.95-124.27,8.9
	c-9.56-0.7-19.17-0.69-25.78-9.17c-8.83-7.81-20.41,16.7-30.02,14.69c-11.55-2.42-22.88-4.08-17.48-20.56
	c10.68-56.23,4.13-130.77,5.51-187.24c1.08-44.49,4.14-88.36,30.36-126.51c6.61-9.62,13.52-23.6,29.01-10.2
	c8.17,7.52,7.41,16.56,5.86,26.62c-7.77,50.42,2.76,99.49,12.09,148.58c1.08,5.66,3.85,10.88,7.65,15.24
	c19.62,10.87,15.46-9.02,20.88-16.3c8.68-27.87,15.78-56.1,20.95-84.83C345.22,220.48,353.95,207.22,355.79,191.8z"/>
<path class="st2" d="M257.57,471.26c31.6,7.4,63.39,6.32,95.13,1.52c16.71-2.53,33.29-5.77,49.3,0.89c3.31,1.38,5.93,4.07,7.23,7.42
	c11.37,29.31,23.83,58.15,24.94,90.59c1.87,54.82-39.68,86.63-90.34,63.29c-28.03-12.91-47.87-11.82-75.59,1.09
	c-54.49,25.37-99.15-12.64-89.54-72.12c4.75-29.39,13.08-57.78,25.27-84.96c0.84-1.88,2.09-3.62,3.72-4.88
	C223.29,462.05,240.44,466.77,257.57,471.26z"/>
</svg>
