<?xml version="1.0" encoding="utf-8"?>
<!-- Generator: Adobe Illustrator 26.0.1, SVG Export Plug-In . SVG Version: 6.00 Build 0)  -->
<svg version="1.1" id="Layer_1" xmlns="http://www.w3.org/2000/svg" xmlns:xlink="http://www.w3.org/1999/xlink" x="0px" y="0px"
	 viewBox="0 0 612 792" style="enable-background:new 0 0 612 792;" xml:space="preserve">
<style type="text/css">
	.st0{fill:#C7C7C8;stroke:#000000;stroke-miterlimit:10;}
	.st1{fill:#DCDDDE;stroke:#000000;stroke-miterlimit:10;}
	.st2{fill:#F3F3F4;stroke:#000000;stroke-miterlimit:10;}
</style>
<path class="st0" d="M275.81,199.48c0.34,25.87,10.25,55.22,4.18,82.09c8.65,14.66,7.25,33.3,18.49,46.94
	c8.49,0.5,14.3-3.42,17.92-10.95c11.79-28.7,8.81-58.9,8.75-88.75c-0.02-12.76-0.59-25.38,8.7-35.75
	c0.15-7.97,0.31-15.95,0.46-23.92c0.05-2.62-8.25-10.02-10.12-12.22c-2.66-3.13-5.35-6.28-8.32-9.12c-3.02-2.88-6.99-6.55-11.51-5.3
	c-4.79,1.32-8.17,7.42-10.69,11.21C284.53,167.42,280.83,184,275.81,199.48z"/>
<path class="st1" d="M332.6,170.8c1.07-1.15,2.47-2.03,3.88-2.71c22.97-11.02,30.19-6.77,33.07,22.8
	c5.6,57.42,10.13,114.98,13.47,172.57c1.97,34.03,13.65,66.98,10.19,101.47c-14.49,11.16-26.11-0.28-38.6-4.83
	c-25.61-8.31-51.54-5.91-77.47-2.28c-18.55,6.23-37.36,31.85-56.43,17.98c-1.6-2.15-5-4.82-4.55-6.37
	c19.28-65.71,6.3-149.6,10.8-216.03c2-29.43,2.08-59.65,17.89-85.87c5.75-9.54,10.92-24.33,26.02-19.02c3,1.06,5.41,3.53,6.38,6.56
	c1.92,5.96,2.99,12.11,3.25,18.42c0.52,12.89-4.15,24.51-2.03,37.85c2.33,14.6,8.95,27.32,9.12,42.35
	c0.21,18.77-4.27,43.98,9.11,59.57c2.84,3.31,7.95,4.13,11.34,1.39c2.68-2.17,4.34-5.59,6.04-8.95c8.61-19.38,5.85-39.9,5.81-60.01
	c-0.03-18.41,1.28-36.56,4.99-54.58C325.85,183.66,327.34,176.41,332.6,170.8z"/>
<path class="st2" d="M364.56,456.29c3.43,1.79,6.77,3.81,10.28,5.44c3.24,1.5,6.71,2.85,10.3,3.13c1.48,0.12,7.12-1.1,8.06,0.08
	c27.85,34.73,31.93,75.85,26.19,117.16c-5.22,37.58-43.74,52.41-83.74,33.56c-15.17-7.15-25.91-7.75-40.23,1.66
	c-25.3,16.62-52.79,14.59-78.11-0.34c-23.95-14.12-29.88-37.78-26.87-64.08c3.81-33.25,10.49-65.64,30.54-93.6
	c18.1-1.79,36.19-3.59,54.29-5.39c14.25-1.41,27.8-4.49,42.29-4.45c12.67,0.03,25.94-0.07,38.25,3.23
	C358.9,453.52,361.76,454.83,364.56,456.29z"/>
</svg>
