<?xml version="1.0" encoding="utf-8"?>
<!-- Generator: Adobe Illustrator 26.0.1, SVG Export Plug-In . SVG Version: 6.00 Build 0)  -->
<svg version="1.1" id="Layer_1" xmlns="http://www.w3.org/2000/svg" xmlns:xlink="http://www.w3.org/1999/xlink" x="0px" y="0px"
	 viewBox="0 0 612 792" style="enable-background:new 0 0 612 792;" xml:space="preserve">
<style type="text/css">
	.st0{fill:#C4C5C6;stroke:#000000;stroke-miterlimit:10;}
	.st1{fill:#DCDCDD;stroke:#000000;stroke-miterlimit:10;}
	.st2{fill:#F2F3F4;stroke:#000000;stroke-miterlimit:10;}
</style>
<path class="st0" d="M292.92,159.91c2.92-2.59,6.04-5.02,8.36-8.21c2.31-3.18,4.06-6.73,6.63-9.73c4.15-4.83,10.26-8.06,16.63-8.29
	s12.87,2.7,16.57,7.89c4.12,5.79,4.41,13.63,2.47,20.46c-1.94,6.84-5.86,12.91-9.73,18.87c-3.05,4.71-6.1,9.41-9.16,14.12
	c-1.17,1.8-2.36,3.65-2.82,5.74c-0.58,2.6,0.02,5.31,0.59,7.92c7.73,35.21,11.36,72.8-0.96,106.69c-1.46,4.02-3.18,8.03-5.95,11.28
	c-2.77,3.25-6.76,5.7-11.03,5.74c-7.3,0.07-12.85-6.48-16.36-12.88c-8.78-16-11.94-34.56-12.34-52.8c-0.49-22.49,3-44.84,7.85-66.74
	C286.62,186.62,290.79,173.37,292.92,159.91"/>
<path class="st1" d="M342.63,166.24c38.15,57.3,36.82,123.87,43.56,188.41c5.21,49.86,8.97,99.88,13.37,149.83
	c-23.42-1.66-43.12-17.33-66.87-17.76c-22.98-12.09-45.64-11.5-68.01,1.76c-18.88,4.21-38.24,13.99-55.11-4.74
	c1.14-67.56,1.35-135.16,3.78-202.67c1.46-40.69,14.86-77.89,43.75-107.89c9.5-9.86,19.15-21.76,35.82-13.26
	c6.88,8.45,8.62,19.03,5.96,29.48c-1.93,7.6-5.46,14.69-7.84,22.15c-6.27,19.64-4.34,40.79-4.62,61.4
	c-0.11,7.76-0.53,15.6,0.85,23.24c1.38,7.64,4.8,15.24,10.99,19.93c3.4,2.57,7.96,4.18,11.94,2.66c4.78-1.83,6.95-7.27,8.41-12.18
	c3.58-12.03,6.12-24.42,6.67-36.95c0.97-21.94-4.18-43.73-11.19-64.54c-2.76-8.21-5.84-16.38-7.11-24.95
	c-1.72-11.55,0.06-28.14,13.78-31.52C330.81,146.16,337.53,159.94,342.63,166.24z"/>
<path class="st2" d="M399.56,504.48c17.8,29.7,25.74,62.42,28.66,96.48c2.23,25.98-8.03,46.27-31.8,57.47
	c-21.78,10.26-43.79,10.08-61.29-8.86c-15.84-17.15-30.54-11.82-46.54-1.24c-26.76,17.69-54.65,28.24-84.38,6.94
	c-30.74-22.02-30.01-54.29-23.3-85.92c6.23-29.38,12.07-59.46,28.67-85.6C209.58,483.74,355.25,437.62,399.56,504.48z"/>
</svg>
