<?xml version="1.0" encoding="utf-8"?>
<!-- Generator: Adobe Illustrator 26.0.1, SVG Export Plug-In . SVG Version: 6.00 Build 0)  -->
<svg version="1.1" id="Layer_1" xmlns="http://www.w3.org/2000/svg" xmlns:xlink="http://www.w3.org/1999/xlink" x="0px" y="0px"
	 viewBox="0 0 612 792" style="enable-background:new 0 0 612 792;" xml:space="preserve">
<style type="text/css">
	.st0{fill:#DCDDDE;stroke:#000000;stroke-miterlimit:10;}
	.st1{fill:#F3F3F4;stroke:#000000;stroke-miterlimit:10;}
</style>
<path class="st0" d="M425.58,346.15c-7.11,91.74,10.83,184.48-10.66,275.57c-4.03,17.09-10.34,33.84-17.45,49.92
	c-3.64,8.22-10.59,17.94-21,16.51c-13.47-1.84-13.56-15.73-14.25-25.3c-1.79-24.76-1.91-49.7-1.53-74.55
	c0.45-29.95-3.78-58.99-14.36-86.94c-4.05-10.72-7.22-26.33-21.77-23.81c-17.27,2.99-13.35,20.31-12.73,32.33
	c2.45,47.5,15.56,93.14,26.12,139.2c2.54,11.1,12.1,25.51,0.54,32.78c-13.54,8.52-26.52-2.94-37.24-12.61
	c-55.05-49.71-69.56-116.21-75.21-185.76c-3.17-39.09-14.15-98.83-25.73-136.25c11.67-31.62,43.94,8.9,63.59,3.15
	c31.24,1.47,62.24-9.89,93.63-2.2C380.27,350.6,402.69,340.09,425.58,346.15z"/>
<path class="st1" d="M425.58,346.15c-20.01,8.89-40.54,13.1-62.23,6.99c-28.85-4.86-57.45-3.22-85.92,2.04
	c-4.85,0.9-9.79,1.1-14.71,0.85c-24.73-1.27-52.5,11.34-71.39-16.48c-16.84-31.89-24.48-66.52-26.62-101.94
	c-1.78-29.59-1.13-60.81,27.41-79.62c31.49-20.75,66.78-20.02,97.2-0.81c22.96,14.5,39.02,15.89,63.39,2.99
	c47-24.88,90.94,1.28,95.16,56.12C451.3,260.77,447.7,305.41,425.58,346.15z"/>
</svg>
