<?xml version="1.0" encoding="utf-8"?>
<!-- Generator: Adobe Illustrator 26.0.1, SVG Export Plug-In . SVG Version: 6.00 Build 0)  -->
<svg version="1.1" id="Layer_1" xmlns="http://www.w3.org/2000/svg" xmlns:xlink="http://www.w3.org/1999/xlink" x="0px" y="0px"
	 viewBox="0 0 612 792" style="enable-background:new 0 0 612 792;" xml:space="preserve">
<style type="text/css">
	.st0{fill:#DCDDDE;stroke:#000000;stroke-miterlimit:10;}
	.st1{fill:#F3F3F4;stroke:#000000;stroke-miterlimit:10;}
</style>
<path class="st0" d="M203.86,361.92c49.59,24.8,102.95,19.87,155.7,19.79c4.07-6.3,10.66-3.8,16.31-4.77
	c30.84-5.29,28.88-24.79,27.35,28.39c0.51,66.13,1.95,132.28,1.06,198.39c-0.33,24.57-9.85,47.14-32.34,61.2
	c-4.92,3.08-11,7.69-16.63,4.02c-5.74-3.74-4.08-11.15-2.29-16.65c11.26-34.56,0.54-65.45-16.41-94.7
	c-16.22-28-18.73-60.57-30.35-91.69c-15.57,8.65-15.5,21.39-16.67,34.17c-4.92,53.95,5.69,105.75,20.6,157.05
	c2.48,8.51,8.41,19.61,0.21,25.19c-10.03,6.83-18.35-3.18-25.12-10.42c-39.07-41.83-58.95-92.43-65.33-148.52
	C213.84,469.63,209.16,415.74,203.86,361.92z"/>
<path class="st1" d="M203.86,361.92c-19.07-29.51-26.05-62.63-26.7-96.97c-1.31-68.75,54.28-102.22,113.61-67.81
	c17.6,10.21,31.52,11.84,49.43,1.49c23.56-13.63,48.49-12.12,70.35,4.72c22.18,17.08,27.2,41.53,22.23,67.68
	c-5.03,26.51-12.04,52.65-18.18,78.95c-6.6,27.33-32.25,28.3-51.85,37.7c-45.34,10.45-89.97,0.91-134.6-5.49
	C217.14,380.6,209.19,372.03,203.86,361.92z"/>
</svg>
