<?xml version="1.0" encoding="utf-8"?>
<!-- Generator: Adobe Illustrator 26.0.1, SVG Export Plug-In . SVG Version: 6.00 Build 0)  -->
<svg version="1.1" id="Layer_1" xmlns="http://www.w3.org/2000/svg" xmlns:xlink="http://www.w3.org/1999/xlink" x="0px" y="0px"
	 viewBox="0 0 612 792" style="enable-background:new 0 0 612 792;" xml:space="preserve">
<style type="text/css">
	.st0{fill:#DCDDDD;stroke:#000000;stroke-miterlimit:10;}
	.st1{fill:#FFFFFF;}
	.st2{fill:#F3F3F4;stroke:#000000;stroke-miterlimit:10;}
</style>
<path class="st0" d="M399.06,365.67c10.79-4.01,21.57-8.02,32.36-12.03c-3.24,81.62-6.26,163.26-9.84,244.87
	c-1.51,34.29-7.03,67.97-20.21,99.99c-3.94,9.57-9.95,19.88-20.51,18.91c-13.82-1.27-9.73-14.96-10.7-24.12
	c-8.01-75.87-35.44-147.82-44.87-223.41c-1.22-9.74-4.01-22.03-15.85-22.21c-12.98-0.2-17.09,12.49-20.46,23.02
	c-14.05,43.88-15.69,88.8-10.64,134.26c3.53,31.77,6.94,63.56,9.97,95.39c0.85,8.88,0.56,18.9-9.1,23
	c-9.48,4.02-16.75-2.72-23.13-8.94c-34.91-34.06-49.52-78.17-56.68-124.25c-12.24-78.76-6.01-159.14-11.47-238.36
	c-1.62-23.45,8.71,1.1,30.41,11.24c4.7,2.19,10.9,0.55,15.57,4.07l-0.51-0.26C288.72,379.86,343.97,383.5,399.06,365.67z"/>
<path class="st1" d="M335.74,79.85c8.05,28.51-4.4,35.14-32.62,35.36c-28.16,0.22-34.77-7.8-35.41-35.44
	c-0.7-29.9,10.24-34,36.33-34.44C330.87,44.88,342.66,51.45,335.74,79.85z"/>
<path class="st2" d="M187.3,347.02c-17.81-41.68-20.97-87.17-32.26-130.55c-7.09-27.23,10.9-53.42,36.44-68.74
	c24.68-14.8,51.54-22.6,76.93-2.36c19.69,15.7,34.14,15.83,53.84-2.01c20.3-18.37,45.4-14.26,66.36,2.83
	c13.23,10.79,24.8,13.94,41.72,6.7c25.9-11.07,52.12,4.27,49.44,32.33c-5.61,58.6-18.07,116.37-48.35,168.41
	c-8.89,12.65-22.71,16.52-36.46,20.59c-50.15,10.3-100.38,12.4-150.69,1.28c-3.43-0.38-6.8-1.18-10.09-2.22
	C217.33,366.78,199.3,362.26,187.3,347.02z"/>
</svg>
