<?xml version="1.0" encoding="utf-8"?>
<!-- Generator: Adobe Illustrator 26.0.1, SVG Export Plug-In . SVG Version: 6.00 Build 0)  -->
<svg version="1.1" id="Layer_1" xmlns="http://www.w3.org/2000/svg" xmlns:xlink="http://www.w3.org/1999/xlink" x="0px" y="0px"
	 viewBox="0 0 595.28 841.89" style="enable-background:new 0 0 595.28 841.89;" xml:space="preserve">
<style type="text/css">
	.st0{fill:#C6C7C8;stroke:#000000;stroke-miterlimit:10;}
	.st1{fill:#DCDDDE;stroke:#000000;stroke-miterlimit:10;}
	.st2{fill:#F3F3F4;stroke:#000000;stroke-miterlimit:10;}
</style>
<path class="st0" d="M331.93,288.45c-10.31,15.77-8.61,35.84-22.35,50.38c-17.54,10.89-14.19-7.71-20.98-11.99
	c-1.35-0.85-2.25-5.32-2.77-6.74c-0.96-2.64-1.8-5.32-2.52-8.02c-1.37-5.12-2.3-10.33-2.91-15.57c-1.21-10.48-1.07-21.04-0.56-31.55
	c1.02-20.69,3.91-41.73,0.65-62.36c-1.46-9.23-2.85-18.48-3.66-27.79c-0.8-9.28,0.69-16.3,4.4-24.8c2.83-6.47,7.94-10.37,15.93-10.5
	c7.45-0.12,12.86,3.46,16.79,8.86c3.77,5.18,8.81,12.07,9.88,18.15c6.78,38.67,8.77,78.03,8.19,117.13
	C332,284.75,332.53,287.53,331.93,288.45z"/>
<path class="st1" d="M330.41,149.16c1.88-2.4,5.9-3.74,8.63-4.19c3.14-0.53,6.19,0.17,8.85,1.89c5.32,3.45,8.38,9.54,11.88,14.62
	c12.06,17.47,16.74,37.7,18.82,59.07c8.33,85.6,0.61,171.66,7.9,257.25c-19.39,14.86-38.39,7.91-57.4-0.9
	c-26.6-6.44-53.14-5-79.65,0.4c-14.82,2.19-27.63,18.33-44.49,6.6c-3.7-36.77,8.76-71.9,10.86-108.17
	c3.56-61.4,8.38-122.75,14.37-183.96c0.81-8.31,1.58-18.75,6.85-25.67c3.93-5.17,9.98-5.25,15.75-3.45
	c4.47,1.4,8.46,3.82,12.62,5.93c3.5,1.78,7.51,2.94,10.29,5.85c4.95,5.19,4.72,13.09,5.02,19.76c0.16,3.52,0.85,7.07,1.13,10.6
	c0.28,3.61,0.47,7.23,0.58,10.85c0.23,7.26,0.19,14.53,0.09,21.79c-0.2,14.51-0.62,29.05,0.48,43.54
	c0.55,7.16,1.47,14.31,2.96,21.34c0.75,3.52,1.64,7.02,2.69,10.47c0.48,1.58,0.91,3.07,1.77,4.5c1.77,2.95,2.94,6.52,5.19,9.16
	c2.07,2.43,5.27,2.87,8.24,2.17c2.54-0.6,4.34-4.68,5.5-6.78c1.53-2.78,2.75-5.71,3.75-8.71c6.74-20.35,7.01-41.96,10.01-62.99
	c3.07-21.58,6.71-43.44,3.83-65.26c-0.47-3.55-1.1-7.08-1.92-10.57c-0.84-3.57,0.61-8.86,1.35-12.37c0.81-3.84,1.94-7.62,3.24-11.32
	C329.79,150.07,330.07,149.6,330.41,149.16z"/>
<path class="st2" d="M386.5,477.81c23.26,30.83,33.08,66.48,34.64,104.24c2.49,60.37-54.23,96.23-107.1,66.75
	c-18.32-10.21-31.32-11.63-51.24-2.84c-52.06,22.96-93.09-8.35-88.07-65.45c3-34.12,4.89-69.24,30.24-96.61
	C204.96,483.9,259.56,450.55,386.5,477.81z"/>
</svg>
