<?xml version="1.0" encoding="utf-8"?>
<!-- Generator: Adobe Illustrator 26.0.1, SVG Export Plug-In . SVG Version: 6.00 Build 0)  -->
<svg version="1.1" id="Layer_1" xmlns="http://www.w3.org/2000/svg" xmlns:xlink="http://www.w3.org/1999/xlink" x="0px" y="0px"
	 viewBox="0 0 612 792" style="enable-background:new 0 0 612 792;" xml:space="preserve">
<style type="text/css">
	.st0{fill:#DCDDDD;stroke:#000000;stroke-miterlimit:10;}
	.st1{fill:#F2F2F3;stroke:#000000;stroke-miterlimit:10;}
</style>
<path class="st0" d="M250.94,292.77c0.95,0.39,2.14,0.54,2.82,1.21c47.46,46.28,47.45,46.28,101.1,5.01
	c-17.06,127.26-10.76,257.59-47.93,382.88c-0.83,2.81-4.82,2.83-5.69,0.03C261.82,554.66,267.25,422.27,250.94,292.77z"/>
<path class="st1" d="M250.94,292.77c-17.18-26.23-26-56.12-33.94-85.73c-9.79-36.48,47.02-88.5,93.04-86.3
	c31.04,1.48,57.25,16.1,80.68,35.37c14.52,11.94,17.31,29.26,9.58,45.13c-15.74,32.32-25.13,67.6-45.43,97.75
	c-23.5,39.23-52.54,50.9-78.58,31.6C263.35,321,258.96,305.66,250.94,292.77z"/>
</svg>
