<?xml version="1.0" encoding="utf-8"?>
<!-- Generator: Adobe Illustrator 26.0.1, SVG Export Plug-In . SVG Version: 6.00 Build 0)  -->
<svg version="1.1" id="Layer_1" xmlns="http://www.w3.org/2000/svg" xmlns:xlink="http://www.w3.org/1999/xlink" x="0px" y="0px"
	 viewBox="0 0 612 792" style="enable-background:new 0 0 612 792;" xml:space="preserve">
<style type="text/css">
	.st0{fill:#DCDDDD;stroke:#000000;stroke-miterlimit:10;}
	.st1{fill:#F3F3F4;stroke:#000000;stroke-miterlimit:10;}
</style>
<path class="st0" d="M261.63,364.71c-0.41-5.27,6.05,3.21,10.62,5.85l0,0c22.15,14.88,44.41,10.53,66.71,0.94
	c0.79-0.34,1.51-0.84,2.12-1.46c1.73-1.78,3.46-3.56,5.18-5.34c4.57-4.72,14.57-16.59,13.24-10.16
	c-19.16,92.44-30.17,202.71-48.85,295.24c-2.04,10.08-4.02,20.12-8.76,29.87c-2.24,4.61-8.63,5.03-11.44,0.73
	c-6.58-10.05-5.62-21.71-6.49-32.05C276.34,557.84,268.69,455.25,261.63,364.71z"/>
<path class="st1" d="M362.24,348.22c-4.74,11.6-10.3,22.53-22.8,27.77c-22.22,8.88-44.62,9.34-67.22,1.45
	c-5.33-2.93-8.41-7.72-10.76-13.11c-5.93-11.79-12.66-23.25-17.64-35.42c-21.86-53.38-9.55-85.22,42.06-110.49
	c25.85-12.66,65.64,4.21,87.37,35.06c3.7,5.24,5.57,11.57,5.46,17.98C378.46,285.59,375.97,314.08,362.24,348.22"/>
</svg>
