<?xml version="1.0" encoding="utf-8"?>
<!-- Generator: Adobe Illustrator 26.0.1, SVG Export Plug-In . SVG Version: 6.00 Build 0)  -->
<svg version="1.1" id="Layer_1" xmlns="http://www.w3.org/2000/svg" xmlns:xlink="http://www.w3.org/1999/xlink" x="0px" y="0px"
	 viewBox="0 0 612 792" style="enable-background:new 0 0 612 792;" xml:space="preserve">
<style type="text/css">
	.st0{fill:#DCDDDD;stroke:#000000;stroke-miterlimit:10;}
	.st1{fill:#F2F3F4;stroke:#000000;stroke-miterlimit:10;}
</style>
<path class="st0" d="M342.28,412.12c7.66-11.69,2.76-28.95,16.63-37.89c-10.29,100.06-20.45,200.13-31.04,300.15
	c-1.32,12.49-2.01,31.88-15.69,31.51c-12.95-0.35-12.99-20.73-14.66-32.56c-10.45-74.04-19.37-148.31-29.02-222.47
	c-2.85-21.89-6.42-43.68-9.67-65.52c14.44,11.54,12.51,33.39,27.75,44.41C312.54,443.4,321.4,440.6,342.28,412.12z"/>
<path class="st1" d="M258.85,385.33c-6.12-15.68-12.68-31.19-17.18-47.44c-6.56-23.69-10.43-48.11-11.7-72.65
	c-1.81-34.82,53.64-74.31,86.2-61.4c18.6,7.38,35.58,19.01,53,29.22c14.02,8.22,15.46,22.02,14.07,36.42
	c-2.68,27.75-9.28,54.93-17.19,81.6c-2.57,8.68-5.08,17.39-8.43,25.79c-2.31,5.79-3.17,11.94-4.63,18.02
	c-1.69,7.04-3.56,14.33-7,20.71c-2.83,5.23-7.55,9.08-11.98,12.92c-3.82,3.32-8,6.29-12.59,8.46c-9.6,4.53-20.14,4.6-30.06,1.02
	c-8.91-3.22-16.54-9.76-20.44-18.47C265.99,408.48,263.24,396.58,258.85,385.33z"/>
</svg>
