<?xml version="1.0" encoding="utf-8"?>
<!-- Generator: Adobe Illustrator 26.0.1, SVG Export Plug-In . SVG Version: 6.00 Build 0)  -->
<svg version="1.1" id="Layer_1" xmlns="http://www.w3.org/2000/svg" xmlns:xlink="http://www.w3.org/1999/xlink" x="0px" y="0px"
	 viewBox="0 0 612 792" style="enable-background:new 0 0 612 792;" xml:space="preserve">
<style type="text/css">
	.st0{fill:#DBDCDD;stroke:#000000;stroke-miterlimit:10;}
	.st1{fill:#F2F3F4;stroke:#000000;stroke-miterlimit:10;}
</style>
<path class="st0" d="M348.77,468.66c-2.58,75.92-5.91,151.78-21.06,226.21c-2.07,10.17-2.44,26.16-14.03,25.78
	c-12.61-0.41-10.57-17.25-11.57-26.99c-7.74-75.47-14.12-151.11-21.65-226.61c-1.79-17.93-3.95-35.83-6.82-53.61
	c-1.63-10.08-12.4-37.39-2.96-45.16c6.11-5.03,12.1,2.45,17.78,5.77l-0.32-0.18c15.92,8.07,30.75,3.71,44.05-6.65
	c12.71-9.9,19.28-9.82,18.54,9.93C349.58,407.66,352.95,438.26,348.77,468.66z"/>
<path class="st1" d="M258.52,366.49c-11.93-40.1-16.93-81.25-19.63-122.89c-0.94-14.5,2.3-28.09,17.04-33.84
	c17.22-6.72,40.83-8.49,59.37-9.13c12.33-0.43,25.75,0.19,36.93,5.98c23.18,12.02,23.17,41.51,20.93,64.1
	c-1.07,10.78-2.92,21.49-5.07,32.11c-4.33,21.31-9.73,42.4-14.64,63.6c-8.98,38.14-20.61,47.71-58.76,48.46
	c-2.87-0.61-5.62-1.65-8.24-2.96C269.15,401.79,265.14,383.33,258.52,366.49z"/>
</svg>
