<?xml version="1.0" encoding="utf-8"?>
<!-- Generator: Adobe Illustrator 26.0.1, SVG Export Plug-In . SVG Version: 6.00 Build 0)  -->
<svg version="1.1" id="Layer_1" xmlns="http://www.w3.org/2000/svg" xmlns:xlink="http://www.w3.org/1999/xlink" x="0px" y="0px"
	 viewBox="0 0 612 792" style="enable-background:new 0 0 612 792;" xml:space="preserve">
<style type="text/css">
	.st0{fill:#DBDCDD;stroke:#000000;stroke-miterlimit:10;}
	.st1{fill:#F2F3F3;stroke:#000000;stroke-miterlimit:10;}
</style>
<g>
	<path class="st0" d="M260.34,270.06c7.82,4.09,7.87,12.58,10.16,19.43c5.29,15.84,9.7,28.76,31.83,28.81
		c20.84,0.05,31.21-6.22,35.88-26.23c1.83-7.85,7.99-14.68,12.18-21.98c5.65,122.25-20.49,241.89-29.27,362.96
		c-0.23,3.23-0.06,6.58-0.89,9.64c-2.48,9.12-2.68,23.19-12.27,24.25c-14.55,1.61-13.56-14.9-15.45-23.87
		c-13.55-64.54-13.71-130.5-18.67-195.96C269.36,388.1,264.84,329.08,260.34,270.06z"/>
	<path class="st1" d="M375.74,171.57c3.65-23.93-6.26-37.19-31.9-36.48c-26.45,0.73-52.94,0.28-79.39,1.13
		c-22.56,0.73-33.61,11.27-27.93,35.43l33.59,145.29c5.55,20.01,18.1,28.09,37.88,27.4c18.25-0.64,30.17-8.08,34.9-27.21
		L375.74,171.57z"/>
</g>
</svg>
