<?xml version="1.0" encoding="utf-8"?>
<!-- Generator: Adobe Illustrator 26.0.1, SVG Export Plug-In . SVG Version: 6.00 Build 0)  -->
<svg version="1.1" id="Layer_1" xmlns="http://www.w3.org/2000/svg" xmlns:xlink="http://www.w3.org/1999/xlink" x="0px" y="0px"
	 viewBox="0 0 612 792" style="enable-background:new 0 0 612 792;" xml:space="preserve">
<style type="text/css">
	.st0{fill:#DBDCDD;stroke:#000000;stroke-miterlimit:10;}
	.st1{fill:#F2F2F3;stroke:#000000;stroke-miterlimit:10;}
</style>
<g>
	<path class="st0" d="M253.97,284.01c4.3,8.01,12.55,11.32,15.81,19.81c5.15,13.4,11.54,25.07,26.52,23.29
		c15.91-1.89,29.62-7.99,33.46-28.48c1.27-6.75,5.42-16.23,12.43-20.21c-14.17,118.3-13.33,239.54-30.53,357.56
		c-1.94,13.32-2.6,35.02-13.27,34.96c-8.4-0.05-12.08-6.82-13.36-14.54c-1.68-10.08-1.48-20.38-2.52-30.53
		c-1.04-10.14-2.11-20.28-3.17-30.41c-2.2-21.15-4.41-42.3-6.58-63.45c-4.35-42.31-8.6-84.63-12.52-126.98
		c-1.22-13.13-2.4-26.26-3.55-39.4C254.21,337.26,253.7,312.66,253.97,284.01z"/>
	<path class="st1" d="M339.66,306.33c-1.89,11.05-3.75,23.17-9.98,31.96c-7.13,10.07-18.56,14.26-30.56,14.83
		c-23.09,1.1-31.88-9.58-39.36-46.69l-22.94-88.94l-8.44-46.59c-1.04-5.76,1.82-11.56,7.07-14.14c40.26-19.77,82.6-9.79,124.2-3.31
		c14.28,2.23,10.89,17.71,8.76,27.93c-6.05,25.5-12.47,50.92-18.59,76.41c-3.28,13.63-5.96,27.39-8.79,41.11
		C340.53,301.29,340.1,303.78,339.66,306.33z"/>
</g>
</svg>
