<?xml version="1.0" encoding="utf-8"?>
<!-- Generator: Adobe Illustrator 26.0.1, SVG Export Plug-In . SVG Version: 6.00 Build 0)  -->
<svg version="1.1" id="Layer_1" xmlns="http://www.w3.org/2000/svg" xmlns:xlink="http://www.w3.org/1999/xlink" x="0px" y="0px"
	 viewBox="0 0 612 792" style="enable-background:new 0 0 612 792;" xml:space="preserve">
<style type="text/css">
	.st0{fill:#DBDCDD;stroke:#000000;stroke-miterlimit:10;}
	.st1{fill:#F2F3F4;stroke:#000000;stroke-miterlimit:10;}
</style>
<path class="st0" d="M338.11,386.98c-15.68,86.98-19.38,175.52-27.37,263.5c-1.73,19.07,0.67,51.38-14.7,51.78
	c-16.66,0.44-15.29-31.36-18.21-50.35c-7.05-45.85-10.43-92.16-12.98-138.46c-2.53-45.98-2.22-91.77-3.93-137.7
	c-0.7-18.91,5.54-18.97,17.6-9.5c12.62,9.91,26.7,14.08,41.81,6.36l-0.31,0.17c5.4-3.17,11.08-10.34,16.88-5.52
	C342.29,371.74,340.29,380.12,338.11,386.98z"/>
<path class="st1" d="M258.7,373.52c-8.3-39.49-19.34-78.4-21.92-119.04c-1.37-21.51,5.91-33.37,28.03-37.28
	c29.13-5.15,60.45-10.07,85.71,3.24c18.57,9.78,20.37,27.16,16.89,45.98c-6.33,34.23-9.53,68.03-18.95,101.59
	c-6.17,15.05-9.3,31.87-24.25,41.83c-2.41,1.62-5.02,2.77-7.79,3.6C281.34,414.39,269.99,406.52,258.7,373.52z"/>
</svg>
