<?xml version="1.0" encoding="utf-8"?>
<!-- Generator: Adobe Illustrator 26.0.1, SVG Export Plug-In . SVG Version: 6.00 Build 0)  -->
<svg version="1.1" id="Layer_1" xmlns="http://www.w3.org/2000/svg" xmlns:xlink="http://www.w3.org/1999/xlink" x="0px" y="0px"
	 viewBox="0 0 612 792" style="enable-background:new 0 0 612 792;" xml:space="preserve">
<style type="text/css">
	.st0{fill:#DCDDDD;stroke:#000000;stroke-miterlimit:10;}
	.st1{fill:#F2F3F4;stroke:#000000;stroke-miterlimit:10;}
</style>
<path class="st0" d="M329.3,358.33c19.42-12.05,13.26-40.21,32.65-52.27c-15.23,114.03-30.08,228.11-46.23,342.01
	c-1.82,12.85-2.31,35.63-16.43,35.27c-16.53-0.43-16.06-22.56-18.71-37.17c-15.36-84.73-13.94-171.13-25.27-256.28
	c-4.29-32.21-7.43-64.58-11.1-96.88c16.32,10.52,10.55,30.82,19.56,44.59C288.34,371.09,298.75,374.39,329.3,358.33z"/>
<path class="st1" d="M243.94,293.07c-0.65-2.56-1.36-5.1-2.16-7.62c-3.86-12.12-7.45-24.32-10.74-36.61
	c-6.69-24.93-12.08-50.23-15.49-75.82c-3.21-24.05,6.51-41.83,27.37-53.58c21.52-12.12,42.51-31.98,68.79-30.12
	c24.21,1.71,44.9,17.94,64.36,30.86c28.99,19.25,21.93,47.51,17.18,73.66c-4.61,25.37-8.87,50.9-16.54,75.57
	c-3.34,10.73-8.2,20.93-12.25,31.37c-4.26,10.97-6.85,22.28-10.38,33.49c-4.02,12.8-10.78,24.64-23.06,30.98
	c-36.15,18.67-71.7-11.8-80.98-46.13C247.7,310.5,246.14,301.71,243.94,293.07z"/>
</svg>
