<?xml version="1.0" encoding="utf-8"?>
<!-- Generator: Adobe Illustrator 26.0.1, SVG Export Plug-In . SVG Version: 6.00 Build 0)  -->
<svg version="1.1" id="Layer_1" xmlns="http://www.w3.org/2000/svg" xmlns:xlink="http://www.w3.org/1999/xlink" x="0px" y="0px"
	 viewBox="0 0 612 792" style="enable-background:new 0 0 612 792;" xml:space="preserve">
<style type="text/css">
	.st0{fill:#DCDDDD;stroke:#000000;stroke-miterlimit:10;}
	.st1{fill:#F3F3F4;stroke:#000000;stroke-miterlimit:10;}
</style>
<g>
	<path class="st0" d="M244.12,343.35c8.11,8.36,16.21,16.73,24.32,25.09c24.97,10.96,49.91,16.23,74.71-0.47
		c3.95-2.29,7.9-4.58,11.85-6.87c-6.14,83.87-11.99,167.77-18.56,251.61c-2.55,32.57-2.18,65.77-15.24,101.34
		c-1.09,2.97-5.18,3.28-6.69,0.5c-18.06-33.29-19.1-67.3-24.58-99.52C274.52,524.51,264.04,433.13,244.12,343.35z"/>
	<path class="st1" d="M244.12,343.35c-9.76-17.83-17.68-38.23-20.46-58.43c-2.31-16.77-0.14-34.76,9.39-48.75
		c9.98-14.64,26.61-23.17,42.94-30.08c11.5-4.87,23.68-9.31,36.14-8.38c17.49,1.31,32.33,12.86,45.61,24.31
		c10.38,8.95,20.88,18.62,25.98,31.34c6.91,17.21,2.7,36.79-3.3,54.34c-5.88,17.22-13.76,33.18-22.2,49.24
		c-13.23,25.17-42.67,27.83-68.49,23.42c-10.11-1.73-20.01-5.44-28.38-11.42C252.47,362.58,248.18,353.29,244.12,343.35"/>
</g>
</svg>
