<?xml version="1.0" encoding="utf-8"?>
<!-- Generator: Adobe Illustrator 26.0.1, SVG Export Plug-In . SVG Version: 6.00 Build 0)  -->
<svg version="1.1" id="Layer_1" xmlns="http://www.w3.org/2000/svg" xmlns:xlink="http://www.w3.org/1999/xlink" x="0px" y="0px"
	 viewBox="0 0 612 792" style="enable-background:new 0 0 612 792;" xml:space="preserve">
<style type="text/css">
	.st0{fill:#DCDDDD;stroke:#000000;stroke-miterlimit:10;}
	.st1{fill:#F2F2F3;stroke:#000000;stroke-miterlimit:10;}
</style>
<path class="st0" d="M257.27,274.75c7.09,5.57,14.38,10.92,21.25,16.76c31.35,26.63,48.87,23.16,70.83-13.59
	c2.38-3.99,7.6-6.26,11.51-9.33c-13.1,116.26-13.98,233.74-34.47,349.26c-2.67,15.02-5.51,30.2-17.26,49.8
	c-1.62,2.71-5.71,2.11-6.52-0.94C267.22,533.02,274.77,402.23,257.27,274.75z"/>
<path class="st1" d="M257.27,274.75c-20.22-30.08-29.23-65.43-45.38-97.46c-6.28-12.45-6.22-28,3.66-38.05
	c26.82-27.26,59.03-45.69,98.66-41.27c37.99,4.24,60.45,31.96,80.45,61.18c4.79,7,3.4,16.05,0.52,24.03
	c-7.15,19.83-12.53,40.31-20.82,59.72c-3.85,9.02-9.96,16.78-14.23,25.5c-4.89,9.99-7.79,20.32-14.64,29.36
	c-10.34,13.64-27.79,21.18-44.8,17.41C280.66,310.74,267.04,291.29,257.27,274.75z"/>
</svg>
