<?xml version="1.0" encoding="utf-8"?>
<!-- Generator: Adobe Illustrator 26.0.1, SVG Export Plug-In . SVG Version: 6.00 Build 0)  -->
<svg version="1.1" id="Layer_1" xmlns="http://www.w3.org/2000/svg" xmlns:xlink="http://www.w3.org/1999/xlink" x="0px" y="0px"
	 viewBox="0 0 595.28 841.89" style="enable-background:new 0 0 595.28 841.89;" xml:space="preserve">
<style type="text/css">
	.st0{fill:#C7C8C9;stroke:#000000;stroke-miterlimit:10;}
	.st1{fill:#DCDDDE;stroke:#000000;stroke-miterlimit:10;}
	.st2{fill:#F3F3F4;stroke:#000000;stroke-miterlimit:10;}
</style>
<path class="st0" d="M305.2,371.55c-12.71,16.96-22.25,10.16-26.99-5.39c-1.82-5.96-0.08-13.59-3.93-19.81
	c-5.91-32.04-16.13-63.09-21.85-95.18c0.96-10.1-0.97-18.1,3.39-30.24c3.47-9.64,5.01-20.98,7.47-31.11
	c2.53-10.47,5.18-20.9,7.91-31.32c3.3-12.58,5.84-29.07,21.26-31.65c9.34-1.56,16.42,3.47,21.74,10.68
	c5.7,7.73,10.36,15.73,12.05,25.28c1.81,10.25,3.8,20.47,4.98,30.84c2.42,21.15,2.67,42.52,0.94,63.73
	C328.99,296.53,319.08,334.88,305.2,371.55z"/>
<path class="st1" d="M286.23,357.11c2.19,5.87,7.58,4.97,12.38,2.87c3.12-1.37,5.53-4.02,6.7-7.22
	c19.98-54.6,24.27-111.05,19.51-168.45c-0.96-11.53-4.25-22.48,5.78-31.55c16.64-14.41,23.95,0.68,31.19,10.95
	c24.76,35.12,31.09,75.9,31.97,117.43c0.63,29.78,0.53,59.57,0.43,89.36c-0.1,28.85-2.07,56.96,2.86,85.56
	c0.76,4.43,5.45,50.88,8.17,51.32l-22.91-3.82c-10.88,2.15-22.75-2.78-32.87,4.77c-15.69,11.06-34.17,7.34-50.91,7.21
	c-37.41-0.3-75.37,2.92-112.06-8.3c1.46-49.15,15.31-97.07,12.03-146.94c-3.3-50.13-13.88-100.41-1.39-150.87
	c4.17-16.84,8.85-33.2,19.1-47.63c3.91-5.5,10.63-8.7,17.31-7.69c10.98,1.66,8.53,12.03,8.98,19.81
	c0.69,11.95,0.43,25.18,3.13,37.33c2.84,12.77,9.61,24.27,12.44,37.08c3.23,14.58,5.61,29.3,9.2,43.81
	C272.66,313.85,280.23,335.41,286.23,357.11z"/>
<path class="st2" d="M405.25,507.38c13.4,29.21,22.38,59.77,28,91.38c4.89,27.49,6.05,54.88-19.48,73.17
	c-26.64,19.08-57.87,20.06-84.79,4.03c-23.37-13.92-39.93-13.06-63.94-0.72c-60.1,30.91-110.53-4.59-105.07-71.51
	c2.75-33.67,13.59-65.45,26.52-96.49C186.49,507.24,317.15,462.37,405.25,507.38z"/>
</svg>
