<?xml version="1.0" encoding="utf-8"?>
<!-- Generator: Adobe Illustrator 26.0.1, SVG Export Plug-In . SVG Version: 6.00 Build 0)  -->
<svg version="1.1" id="Layer_1" xmlns="http://www.w3.org/2000/svg" xmlns:xlink="http://www.w3.org/1999/xlink" x="0px" y="0px"
	 viewBox="0 0 612 792" style="enable-background:new 0 0 612 792;" xml:space="preserve">
<style type="text/css">
	.st0{fill:#DCDDDD;stroke:#000000;stroke-miterlimit:10;}
	.st1{fill:#F3F3F4;stroke:#000000;stroke-miterlimit:10;}
</style>
<g>
	<path class="st0" d="M204.84,380.33c10.6,0.45,20.38,3.44,29.19,9.44c46.16,14.96,92.45,11.91,138.8,0.96l-0.42,0.22
		c36.28-9.32,37.08-31.36,36.66,5.05c-0.49,42.72-1.06,85.33-2.61,128.01c-1.52,42.08-7.78,84.41-26.82,122.43
		c-7.12,14.21-15.67,27.27-27.78,37.72c-4.97,4.29-10.59,8.62-17.38,5.71c-6.81-2.92-8.26-9.83-7.65-16.53
		c2.42-26.7,4.7-53.42,7.93-80.02c4.75-39.07,3.43-77.59-8.46-115.33c-2.78-8.83-6.26-19.77-17.03-19.36
		c-11.39,0.43-13.03,12.29-14.01,21.11c-7.06,63.55-31.69,123.58-37.09,187.43c-0.6,7.05,1.38,16.7-8.67,17.77
		c-8.12,0.87-13.34-6.52-16.27-13.23c-11.63-26.58-16.65-54.88-17.88-83.62c-2.4-56.45-3.74-112.94-5.57-169.41
		C209.37,405.75,209.77,392.69,204.84,380.33z"/>
	<path class="st1" d="M204.84,380.33c-13.02-12.41-16.9-41.12-20.84-57.76c-3.14-13.27-5.96-26.64-9.98-39.68
		c-3.11-10.09-12.41-21.84-12.41-32.19c0,0,0-11.46,0-11.46c0-6.14,2.54-12,7.03-16.19c13.54-12.66,27.32-23.51,49.15-8.58
		c8.92,6.1,17.01-3.09,24.3-8.56c21.38-16.04,43.16-16.97,62.48,2.03c12.53,12.33,21.92,7.9,33.88,0.37
		c28.44-17.9,51.85-16.52,76.07,3.1c21.71,17.59,30.94,44.25,20.07,71.91c-11.6,29.52-8.16,62.45-23.12,90.8
		c-9.95,12.56-24.74,16.38-38.78,21.68c-2.78,1.02-5.62,1.68-8.53,2.15c-42.55,8.95-85,8.17-127.39-0.97
		C224.84,393.93,213.89,388.95,204.84,380.33z"/>
</g>
</svg>
