<?xml version="1.0" encoding="utf-8"?>
<!-- Generator: Adobe Illustrator 26.0.1, SVG Export Plug-In . SVG Version: 6.00 Build 0)  -->
<svg version="1.1" id="Layer_1" xmlns="http://www.w3.org/2000/svg" xmlns:xlink="http://www.w3.org/1999/xlink" x="0px" y="0px"
	 viewBox="0 0 612 792" style="enable-background:new 0 0 612 792;" xml:space="preserve">
<style type="text/css">
	.st0{fill:#DCDDDE;stroke:#000000;stroke-miterlimit:10;}
	.st1{fill:#F3F3F4;stroke:#000000;stroke-miterlimit:10;}
</style>
<g>
	<path class="st0" d="M257.17,332.19c31.92,1.53,63.65-2.48,95.86,5.58c33.57,8.4,59.53-19.81,90.2-27.61
		c-13.43,77.55-9.43,157.12-26.37,234.17c-11.88,54.02-35.04,102.79-74.44,142.7c-7.73,7.83-17.25,17.35-27.91,10.09
		c-8.83-6.01-3.45-17.92-0.77-27.1c18.06-61.86,31.98-124.2,26.16-189.45c-1.41-15.81-0.93-31.57-14.96-42.89
		c-14.28,3.98-12.73,17.2-14.37,26.46c-5.78,32.62-17.51,62.65-32.72,91.88c-16.48,31.68-27.09,64.73-15.4,101.17
		c2.47,7.7,6.07,18.2-2.12,23.55c-7.89,5.15-16.66-1.84-23.13-6.52c-24.3-17.58-35.72-43.58-36.01-72.12
		c-0.81-79.84-0.55-187.04,0.07-266.89C196.75,293.68,198.04,321.02,257.17,332.19z"/>
	<path class="st1" d="M188.8,295.75c-7.14-30.58-14.85-61.04-21.25-91.78c-6.86-32.93-1.78-63.61,26.17-85.24
		c27.63-21.39,58.69-21.7,88.2-4.2c19.25,11.41,34.89,10.16,53.11-1.82c29.65-19.49,62.29-29.84,95.04-8.84
		c34.36,22.04,49.1,55.44,45.44,96.46c-3.46,38.75-10.29,76.53-32.27,109.83c-21.73,28.25-52.28,40.17-85.78,37.46
		c-33.64-2.72-67.54-2.73-101.01-7.74C229.53,331.93,198.35,330.41,188.8,295.75z"/>
</g>
</svg>
