<?xml version="1.0" encoding="utf-8"?>
<!-- Generator: Adobe Illustrator 26.0.1, SVG Export Plug-In . SVG Version: 6.00 Build 0)  -->
<svg version="1.1" id="Layer_1" xmlns="http://www.w3.org/2000/svg" xmlns:xlink="http://www.w3.org/1999/xlink" x="0px" y="0px"
	 viewBox="0 0 612 792" style="enable-background:new 0 0 612 792;" xml:space="preserve">
<style type="text/css">
	.st0{fill:#DCDDDE;stroke:#000000;stroke-miterlimit:10;}
	.st1{fill:#F3F3F4;stroke:#000000;stroke-miterlimit:10;}
</style>
<g>
	<path class="st0" d="M398.62,358.05c-17.09,48.52-19.76,104.75-27.77,154.77c-7.73,48.2-26.22,91.16-63.09,124.73
		c-9.8,8.92-21.75,19.3-34.15,11.76c-10.73-6.53-1.95-19.74,0.31-29.9c8.67-38.98,20.47-77.39,23.06-117.5
		c0.91-14.14,8.46-35.42-10.54-38.8c-18.7-3.33-19.85,19.79-24.32,32.98c-12.03,35.48-8.06,72.7-9.13,109.39
		c-0.51,17.41,5.92,44.93-14.13,47.73c-21.48,3-25.82-24.99-31.45-42.89c-14.49-46.04-14.91-93.76-13.6-141.41
		c1.1-40.01,3.85-81.63-1.79-121.51c19.22-10.09,39.2,2.48,58.75-1.43c29.56-9.85,59.08,0.48,88.64,0.12
		C358.3,351.22,386.73,329.49,398.62,358.05z"/>
	<path class="st1" d="M191.99,347.4c-9.94-31.46-14.52-63.9-12.4-96.6c3.37-51.81,42.25-73.88,88.05-49.49
		c16.79,8.94,27.87,8.6,43.9-1.99c28.22-18.66,60.12-21.62,89.45-2.28c26.78,17.66,25.74,46.97,23.4,74.71
		c-2.4,28.55-8.92,56.35-22.48,82.02c-17.69,26.15-44.55,10.98-67.16,14.91c-26.69-4.48-53.37-10.12-80.24-0.99
		C230.66,370.21,207.18,371.6,191.99,347.4z"/>
</g>
</svg>
