<?xml version="1.0" encoding="utf-8"?>
<!-- Generator: Adobe Illustrator 26.0.1, SVG Export Plug-In . SVG Version: 6.00 Build 0)  -->
<svg version="1.1" id="Layer_1" xmlns="http://www.w3.org/2000/svg" xmlns:xlink="http://www.w3.org/1999/xlink" x="0px" y="0px"
	 viewBox="0 0 317.28 275.89" style="enable-background:new 0 0 317.28 275.89;" xml:space="preserve">
<style type="text/css">
	.st0{fill:#DCDCDD;stroke:#000000;stroke-miterlimit:10;}
	.st1{fill:#F3F3F4;stroke:#000000;stroke-miterlimit:10;}
</style>
<g>
	<path class="st0" d="M180.23,196.62c-5.67-1.8-5.15-8.65-7.91-12.69c-15.48-9.22-25.03-9.56-35.65-1.27
		c-4.67,5.09-9.35,10.17-14.02,15.26c8.74-41.66,12.98-84.05,20.23-125.96c1.28-7.41,3.74-14.4,8.51-20.28
		c2.15-2.64,4.66-5.82,8.76-4.17c3.51,1.42,3.31,4.98,3.41,8.09c0.52,15.25,1.48,30.51,1.4,45.76
		c-0.15,28.08,3.87,55.17,12.94,81.65C179.29,187.04,180.89,192.15,180.23,196.62z"/>
	<path class="st1" d="M184.67,204.03c1.37,5.28,2.21,10.75,1.56,16.17c-1.78,14.64-12.03,27.09-26.33,31.04
		c-15.43,4.27-29.32-3.51-36.15-16.22c-9.67-18-1.1-37.09-1.1-37.09c3.62-7.4,7.23-14.8,14.87-19.06
		c11.7-5.17,22.99-3.64,34.03,2.06C171.55,180.93,179.32,183.48,184.67,204.03z"/>
</g>
</svg>
