<?xml version="1.0" encoding="utf-8"?>
<!-- Generator: Adobe Illustrator 26.0.1, SVG Export Plug-In . SVG Version: 6.00 Build 0)  -->
<svg version="1.1" id="Layer_1" xmlns="http://www.w3.org/2000/svg" xmlns:xlink="http://www.w3.org/1999/xlink" x="0px" y="0px"
	 viewBox="0 0 595.28 841.89" style="enable-background:new 0 0 595.28 841.89;" xml:space="preserve">
<style type="text/css">
	.st0{fill:#DCDDDD;stroke:#000000;stroke-miterlimit:10;}
	.st1{fill:#F3F3F4;stroke:#000000;stroke-miterlimit:10;}
</style>
<path class="st0" d="M248.11,511.29c10.83-60.13,8.21-121.28,13.74-181.81c3.49-38.17,5.99-76.46,10.83-114.45
	c1.65-12.94,2.54-28.62,16.43-34.2c5.19-2.08,11.04,0.78,13.14,5.97c15.12,37.3,16.18,77.27,19.66,116.7
	c5.72,64.71,10.49,129.52,26.98,192.69c-10.8-4.87-12.95-16.76-19.92-24.74c-14.18-8.45-29.11-10.83-44.98-5.58
	C265.4,475.73,262.44,498.05,248.11,511.29z"/>
<path class="st1" d="M241.07,620.51c1.29,3.18,2.74,6.21,4.39,9.06c13.68,23.61,49.65,38.77,75.88,29.33
	c1.84-0.66,3.62-1.44,5.32-2.4c39.18-21.97,63.28-40.25,50.06-88.35c-4.28-15.56-8.69-31.13-14.81-46.08
	c-4.6-11.25-7.2-23.73-13.02-34.38c-4.52-8.27-11.61-16.29-20.66-20.68c-15.02-7.28-30.56-8.46-46.59-4.15
	c-18.54,4.99-32.3,31.72-39.87,47.84c-9.1,19.38-11.74,41.09-10.15,62.3C232.75,588.03,235.08,605.74,241.07,620.51z"/>
</svg>
