<?xml version="1.0" encoding="utf-8"?>
<!-- Generator: Adobe Illustrator 26.0.1, SVG Export Plug-In . SVG Version: 6.00 Build 0)  -->
<svg version="1.1" id="Layer_1" xmlns="http://www.w3.org/2000/svg" xmlns:xlink="http://www.w3.org/1999/xlink" x="0px" y="0px"
	 viewBox="0 0 595.28 841.89" style="enable-background:new 0 0 595.28 841.89;" xml:space="preserve">
<style type="text/css">
	.st0{fill:#DBDCDD;stroke:#000000;stroke-miterlimit:10;}
	.st1{fill:#F2F2F3;stroke:#000000;stroke-miterlimit:10;}
</style>
<path class="st0" d="M238.38,533.71c11.99-89.15,24.79-178.18,42.88-266.32c6.08-29.61,3.9-59.14,1.29-88.79
	c-0.81-9.18-3.05-20.69,7.18-24.73c9.57-3.78,16.79,5.28,23.12,11.83c21.14,21.84,28.98,50.31,30.92,78.85
	c6.69,98.16,11.04,196.49,16.27,294.75c-12.63,3.02-15.39-7.55-18.35-15.28c-5.46-14.23-14.41-25.04-26.31-33.79
	c-14.43-13.16-26.27-7.1-37.24,5.15C263.54,506.73,260.75,530.66,238.38,533.71z"/>
<path class="st1" d="M352.73,528.2c2.53,5.81,7.26,10.69,9.47,16.64c8.64,23.27,12.25,48.17,10.56,72.93
	c-2.06,30.23-17.35,44.79-47.26,46.06c-1.82,0.08-3.65,0.03-5.47,0c-93.75-1.49-116.13-36.03-82.45-127.98
	c0.51-1.4,1.27-2.74,2.2-3.91c10.57-13.3,21.14-26.6,31.71-39.9c14.48-15.42,30.96-17.37,49.13-7.93c0.58,0.3,1.12,0.62,1.66,0.98
	C325.99,487.65,339.85,498.64,352.73,528.2z"/>
</svg>
