<?xml version="1.0" encoding="utf-8"?>
<!-- Generator: Adobe Illustrator 26.0.1, SVG Export Plug-In . SVG Version: 6.00 Build 0)  -->
<svg version="1.1" id="Layer_1" xmlns="http://www.w3.org/2000/svg" xmlns:xlink="http://www.w3.org/1999/xlink" x="0px" y="0px"
	 viewBox="0 0 595.28 841.89" style="enable-background:new 0 0 595.28 841.89;" xml:space="preserve">
<style type="text/css">
	.st0{fill:#DCDDDE;stroke:#000000;stroke-miterlimit:10;}
	.st1{fill:#F3F3F4;stroke:#000000;stroke-miterlimit:10;}
</style>
<path class="st0" d="M272.71,449.85c-25.72,14.17-34.56,42.59-52.33,63.48c-0.84-81.69,17.65-160.47,34.98-239.46
	c7.95-36.22,13.92-72.83,14.65-110.03c0.27-13.77,2.93-25.89,16.61-31.1c14.24-5.43,24.3,4.39,32.48,13.73
	c23.07,26.35,28.53,59.93,30.09,92.87c3.96,83.82,6.69,167.64,21.79,250.43c-11.35-13.35-22.7-26.7-34.05-40.05
	C315.49,437.81,294.09,439.43,272.71,449.85z"/>
<path class="st1" d="M371.45,489.62c2.54,7.01,4.69,13.97,6.74,20.28c11.61,35.72,17.24,73.25,17.1,110.79
	c-0.16,43.92-17.15,60.44-59.82,66.36c-33,4.58-65.27,2.31-96.78-8.25c-24.25-8.13-37.93-24.63-38.84-51.73
	c-1.25-37.42,7.17-73.87,18.92-109.17c9.87-29.67,21.38-59.64,51.96-73.29c2.22-0.99,4.58-1.72,6.94-2.27
	c19.04-4.42,38.11-6.48,57.22,0.59C354.25,450.07,364.35,470.02,371.45,489.62z"/>
</svg>
