<?xml version="1.0" encoding="utf-8"?>
<!-- Generator: Adobe Illustrator 26.0.1, SVG Export Plug-In . SVG Version: 6.00 Build 0)  -->
<svg version="1.1" id="Layer_1" xmlns="http://www.w3.org/2000/svg" xmlns:xlink="http://www.w3.org/1999/xlink" x="0px" y="0px"
	 viewBox="0 0 595.28 841.89" style="enable-background:new 0 0 595.28 841.89;" xml:space="preserve">
<style type="text/css">
	.st0{fill:#DCDDDE;stroke:#000000;stroke-miterlimit:10;}
	.st1{fill:#F3F3F4;stroke:#000000;stroke-miterlimit:10;}
</style>
<path class="st0" d="M374.6,511.48c-17.61-20.52-26.12-48.73-51.62-62.59c-21.1-10.26-42.21-11.89-63.35-0.11
	c-11.19,13.16-22.39,26.31-33.58,39.47c19.47-91.75,13.94-185.89,26.13-278.31c3.46-26.21,11.67-51,33.54-67.86
	c18.24-14.06,38.33-6.62,38.91,16.11c2.24,88.38,32.38,171.76,43.17,258.48C371.72,448.06,372.43,479.86,374.6,511.48z"/>
<path class="st1" d="M374.77,511.42c11.47,32.06,19.97,63.83,20.16,98.44c0.03,5.55-0.12,11.11-0.43,16.66
	c-1.31,22.94-12.46,37.89-32.73,45.99c-40.2,16.06-82.04,16.65-123.08,6.52c-29.85-7.36-36.73-34.8-36.64-61.67
	c0.14-44.28,7.63-87.66,24.01-129.1c7.66-18.56,14.51-37.75,35.31-46.02c19.94-7.34,39.88-4.92,59.85-0.07
	c28.13,6.84,41.42,36.47,50.57,61.1C372.8,505.98,373.8,508.7,374.77,511.42z"/>
</svg>
