<?xml version="1.0" encoding="utf-8"?>
<!-- Generator: Adobe Illustrator 26.0.1, SVG Export Plug-In . SVG Version: 6.00 Build 0)  -->
<svg version="1.1" id="Layer_1" xmlns="http://www.w3.org/2000/svg" xmlns:xlink="http://www.w3.org/1999/xlink" x="0px" y="0px"
	 viewBox="0 0 612 792" style="enable-background:new 0 0 612 792;" xml:space="preserve">
<style type="text/css">
	.st0{fill:#DCDDDD;stroke:#000000;stroke-miterlimit:10;}
	.st1{fill:#C6C7C8;stroke:#000000;stroke-miterlimit:10;}
	.st2{fill:#F2F3F4;stroke:#000000;stroke-miterlimit:10;}
</style>
<g>
	<path class="st0" d="M232.21,474.57c4.2-59.36-2.5-141.91-24.47-197.5c-14.28-36.13-18.33-73.65-5.69-111.49
		c2.94-8.8,6.79-19.24,18.12-17.63c10.62,1.5,9.21,12.27,9.14,20.16c-0.35,39.32,18.38,73.23,30.29,109.07
		c22.3,20.64,32.26,48.05,40.16,81.82c15.6-23.78,22.48-47.76,45.04-58.71c30.61-41.21,38.15-87.06,28.16-136.77
		c-1.86-9.23-7.53-23.24,6.35-25.69c10.93-1.93,15.94,11.39,19.3,20.97c19.51,55.66,29.37,113.47,2.32,167.78
		c-29.32,58.85-29.49,117.76-17.5,179.22c-15.38,3.7-20.83-13.01-33.05-15.9c-28.71-10.76-58.49-3.72-87.68-5.54
		C233.13,482.53,229.55,505.86,232.21,474.57z"/>
	<path class="st1" d="M344.81,300.3c-11.36,21.41-22.28,43.07-34.28,64.11c-5.77,10.12-20.12,11.81-20.29,0.85
		c-0.52-33.51-25.96-56.98-30.63-88.07c26.4-16.21,22.68-45.17,27.87-69.62c3.53-16.6,0.78-34.49,1.36-51.78
		c0.29-8.52-4.17-20.82,8.35-22.98c10.58-1.83,15.11,8.94,18.86,17.22c13.41,29.61,12.19,61.56,14.82,93
		C332.5,262.64,327.56,284.33,344.81,300.3z"/>
	<path class="st2" d="M383.43,505.82c17.4,29.74,14.52,61.41,5.77,92.19c-11.05,38.9-46.99,50.07-79.46,26.18
		c-11.65-8.57-22.12-21.28-35.85-3.91c-10.46,13.23-22.65,21.02-39.79,14.53c-19.08-7.23-30.39-22.18-31.62-41.78
		c-2.37-37.53,6.42-72.98,25.99-105.43c7.03-6.43,15.21-9.73,24.83-9.26C253.29,478.33,366.09,459.58,383.43,505.82z"/>
</g>
</svg>
