<?xml version="1.0" encoding="utf-8"?>
<!-- Generator: Adobe Illustrator 26.0.1, SVG Export Plug-In . SVG Version: 6.00 Build 0)  -->
<svg version="1.1" id="Layer_1" xmlns="http://www.w3.org/2000/svg" xmlns:xlink="http://www.w3.org/1999/xlink" x="0px" y="0px"
	 viewBox="0 0 612 792" style="enable-background:new 0 0 612 792;" xml:space="preserve">
<style type="text/css">
	.st0{fill:#C4C5C6;stroke:#000000;stroke-miterlimit:10;}
	.st1{fill:#DBDCDD;stroke:#000000;stroke-miterlimit:10;}
	.st2{fill:#F2F2F3;stroke:#000000;stroke-miterlimit:10;}
</style>
<g>
	<path class="st0" d="M237.54,216.57c0,0,15.37-49.02,47.44-93.67c7.91-11.02,19.37-27.49,34.64-17.8
		c13.51,8.57,0.92,23.62-3.14,35.06c-20.13,56.69-19.65,112.51,5.59,167.54c4.16,9.06,8.55,18.24,18.57,22.62
		c3.96,22.06-1.19,44.27-23.23,48.91c-25.68,5.41-35.1-22.38-42.61-39.41c-7.21-16.33-11.12-34.85-20-51.14
		C248.72,264.71,230.34,243.71,237.54,216.57"/>
	<path class="st1" d="M281.51,323.12c6.99,15.39,10.39,35.53,29.09,38.28c8.41,1.23,14.33-5,17.98-11.84
		c2.03-3.8,3.59-7.84,5.78-11.56c2.28-3.88,5.47-7.18,7.58-11.15c1.66-3.14,2.36-6.94,3.47-10.32c2.04-6.2,3.99-12.42,6.06-18.61
		c4.07-12.19,8.6-24.33,15.11-35.46c25.75-44.04,36.59-89.49,27-139.98c-1.93-10.17-7.2-25.49,7.26-29.98
		c13.83-4.3,19.06,10.46,23.82,20.02c18.9,37.92,35.71,79.82,19.71,120c-33.98,85.3-32.54,173.68-34.27,262.34
		c-21.8,8.33-42.22-3.53-63.39-4.84c-46.07-2.85-90.67,4.67-135.35,13.47c7.08-75.45-6.7-148.81-22.8-221.83
		c-9.65-43.75-15.99-87.69-11.07-132.51c1.55-14.1,3.06-33.67,18.71-35.23c19.81-1.97,14.13,20.21,19.16,32.12
		C215.34,146.05,231.76,213.57,281.51,323.12z"/>
	<path class="st2" d="M211.35,503.49c64.68-39.06,131.24-34.69,198.74-8.63c25.93,41.38,14.2,102.01-26.77,138.39
		c-29.06,25.79-65.67,18.71-97.05,1.39c-15.9-8.78-30.6-19.57-45.07-30.5c-14.43-10.9-30.23-20.98-36.93-38.72
		C196.61,545.16,203.68,522.62,211.35,503.49z"/>
</g>
</svg>
