<?xml version="1.0" encoding="utf-8"?>
<!-- Generator: Adobe Illustrator 26.0.1, SVG Export Plug-In . SVG Version: 6.00 Build 0)  -->
<svg version="1.1" id="Layer_1" xmlns="http://www.w3.org/2000/svg" xmlns:xlink="http://www.w3.org/1999/xlink" x="0px" y="0px"
	 viewBox="0 0 612 792" style="enable-background:new 0 0 612 792;" xml:space="preserve">
<style type="text/css">
	.st0{fill:#DBDCDD;stroke:#000000;stroke-miterlimit:10;}
	.st1{fill:#F2F2F3;stroke:#000000;stroke-miterlimit:10;}
</style>
<g>
	<path class="st0" d="M231.32,461.81c8.78-37.07,14-75.5,18.47-113.32c4.55-38.51,7.28-77.25,7.72-116.04
		c0.34-30.25-0.71-60.52-3.31-90.65c-0.28-3.26-0.43-6.64,0.06-9.86c1.87-12.35-2.04-30.75,13.67-32.65
		c14.56-1.76,13.1,16.68,17.17,27.17c36.17,93.29,43.67,191.05,42.13,290.34c-0.47,30.57,0.95,61.16,1.51,91.75
		c-21.85,5.53-34.86-19.1-55.56-17.52c-8.03-1.48-15.83-3.97-24.17-3.41c-8.11,0.55-18.24-0.88-19.8-10.6
		c-0.81-4.99,0.81-9.74,1.95-14.51C231.21,462.27,231.27,462.04,231.32,461.81z"/>
	<path class="st1" d="M305.51,458.32c8.24,3.74,14.32,11.02,21.32,16.72c6.4,5.2,10.52,14.88,14.28,22.15
		c7.02,13.58,12.43,28.23,13.85,43.53c2.27,24.54-6.9,47.57-20.38,67.64c-9.61,14.3-21.24,24.65-40.31,19.13
		c-23.82-6.9-44.05-23.05-57.69-43.57c-13.56-20.39-20.92-45.14-19.77-69.67c1.14-24.32,9.56-50.47,33.14-61.52
		c4.03-1.89,8.38-3,12.83-3.17C262.78,449.55,288.72,450.7,305.51,458.32z"/>
</g>
</svg>
