<?xml version="1.0" encoding="utf-8"?>
<!-- Generator: Adobe Illustrator 26.0.1, SVG Export Plug-In . SVG Version: 6.00 Build 0)  -->
<svg version="1.1" id="Layer_1" xmlns="http://www.w3.org/2000/svg" xmlns:xlink="http://www.w3.org/1999/xlink" x="0px" y="0px"
	 viewBox="0 0 612 792" style="enable-background:new 0 0 612 792;" xml:space="preserve">
<style type="text/css">
	.st0{fill:#DADBDB;stroke:#000000;stroke-miterlimit:10;}
	.st1{fill:#F1F1F2;stroke:#000000;stroke-miterlimit:10;}
</style>
<g>
	<path class="st0" d="M284.92,458c-5.66-2.17-5.77-6.9-5.27-12.24c10.52-112.87,16.57-225.71-2.38-338.33
		c-1.12-6.65-2.69-14.13,5.05-15.32c5.04-0.78,12.02,2.07,15.97,5.87c19.59,18.84,29.64,43.91,34.49,70.7
		c16.74,92.56,15.5,186.73,20.38,280.34c-17.85,5.57-39-12.07-54.64,8.97C293.98,460.44,289.43,463.65,284.92,458z"/>
	<path class="st1" d="M285.09,436.14c2.98-2.72,6.72-4.84,10.17-6.72c26.73-14.54,47.38-11.61,57.93,20.35
		c8.89,44.38,8.06,89,1.87,133.48c-5.68,40.75-21.58,47.01-55.43,23.28c-17.25-12.1-32.03-28.12-40.22-47.72
		c-7.82-18.71-8.92-39.39-4.78-59.12c2.34-11.14,6.23-21.91,11.14-32.16c2.7-5.64,5.72-11.12,8.98-16.45
		c2.59-4.23,4.94-8.65,8.07-12.53C283.51,437.68,284.27,436.89,285.09,436.14z"/>
</g>
</svg>
