<?xml version="1.0" encoding="utf-8"?>
<!-- Generator: Adobe Illustrator 26.0.1, SVG Export Plug-In . SVG Version: 6.00 Build 0)  -->
<svg version="1.1" id="Layer_1" xmlns="http://www.w3.org/2000/svg" xmlns:xlink="http://www.w3.org/1999/xlink" x="0px" y="0px"
	 viewBox="0 0 612 792" style="enable-background:new 0 0 612 792;" xml:space="preserve">
<style type="text/css">
	.st0{fill:#DBDBDC;stroke:#000000;stroke-miterlimit:10;}
	.st1{fill:#F2F2F3;stroke:#000000;stroke-miterlimit:10;}
</style>
<g>
	<path class="st0" d="M347.67,448.29c-52.13-23.16-69.93-20.55-101.03,14.82c-4-41.09-0.1-81.31,11.13-121.11
		c12.17-43.11,14.18-87.4,13.6-132.05c-0.58-43.73,5.77-86.43,29.97-124.12c5.99-9.33,12.97-24.49,26.59-18.87
		c12.41,5.12,4.98,19.39,2.59,28.76c-14.68,57.45-12.34,115.13,3.67,170.96C351.43,326.85,352.17,387.09,347.67,448.29z"/>
	<path class="st1" d="M347.67,448.29c26.52,41.4,37.18,87.71,37.93,135.96c0.82,52.96-33.68,74.03-79.88,49.69
		c-12.85-6.77-22.74-7.64-36.49-2.34c-43.15,16.63-66.46-2.87-61.15-49.53c4.81-42.27,26.92-78.91,38.57-118.96
		C265.96,416.22,313.04,409.32,347.67,448.29z"/>
</g>
</svg>
