<?xml version="1.0" encoding="utf-8"?>
<!-- Generator: Adobe Illustrator 26.0.1, SVG Export Plug-In . SVG Version: 6.00 Build 0)  -->
<svg version="1.1" id="Layer_1" xmlns="http://www.w3.org/2000/svg" xmlns:xlink="http://www.w3.org/1999/xlink" x="0px" y="0px"
	 viewBox="0 0 612 792" style="enable-background:new 0 0 612 792;" xml:space="preserve">
<style type="text/css">
	.st0{fill:#DBDBDC;stroke:#000000;stroke-miterlimit:10;}
	.st1{fill:#F2F2F3;stroke:#000000;stroke-miterlimit:10;}
</style>
<g>
	<path class="st0" d="M359.13,485.94c-27.53-31.49-43.57-33.84-89.86-13.16c-4.02-54.41-3.35-107.97,12.01-161.47
		c14.57-50.75,16.27-103.11,2.62-155.18c-1.91-7.3-7.46-17.97,2.82-22.78c9.9-4.63,15.24,5.77,19.97,11.95
		c22.36,29.22,30.43,64.2,29.87,99.46c-0.92,58.27,6.92,114.79,20.86,171.03C363.08,438.66,360.82,462.48,359.13,485.94z"/>
	<path class="st1" d="M359.13,485.94c10.36,35.61,30.02,68.19,34.29,105.78c4.71,41.49-16.02,58.83-54.38,44.03
		c-12.22-4.71-21.02-3.94-32.44,2.08c-41.11,21.66-71.74,2.95-71.04-44.17c0.63-42.91,10.15-84.07,33.71-120.89
		C300.86,438.74,341.66,444.72,359.13,485.94z"/>
</g>
</svg>
