<?xml version="1.0" encoding="utf-8"?>
<!-- Generator: Adobe Illustrator 26.0.1, SVG Export Plug-In . SVG Version: 6.00 Build 0)  -->
<svg version="1.1" id="Layer_1" xmlns="http://www.w3.org/2000/svg" xmlns:xlink="http://www.w3.org/1999/xlink" x="0px" y="0px"
	 viewBox="0 0 612 792" style="enable-background:new 0 0 612 792;" xml:space="preserve">
<style type="text/css">
	.st0{fill:#DADBDB;stroke:#000000;stroke-miterlimit:10;}
	.st1{fill:#F1F1F2;stroke:#000000;stroke-miterlimit:10;}
</style>
<g>
	<path class="st0" d="M247.01,442.99c4.01-81.19,3.33-162.79,16.91-243.15c4.19-24.8,12.82-47.95,30.46-65.43
		c3.36-3.33,9.46-5.78,13.77-5.03c6.6,1.15,5.17,7.7,4.21,13.55c-16.27,99.01-11.01,198.21-2.14,297.47
		c0.48,5.33-1.42,10.9-2.21,16.36c-8.12,1.67-11.86-5.99-17.5-9.63C277.09,432.07,261.04,449.83,247.01,442.99z"/>
	<path class="st1" d="M297.04,420.12c3.92,2.98,7.52,6.72,10.96,10.93c39.84,48.67,33.79,107.13-14.62,141.33
		c-29.17,20.61-43.1,15.28-47.99-19.67c-5.38-38.39-6.09-76.92,1.59-115.22c2.2-11,10.65-21.93,21.98-24.06
		C280.38,411.29,289.33,414.24,297.04,420.12z"/>
</g>
</svg>
