<?xml version="1.0" encoding="utf-8"?>
<!-- Generator: Adobe Illustrator 26.0.1, SVG Export Plug-In . SVG Version: 6.00 Build 0)  -->
<svg version="1.1" id="Layer_1" xmlns="http://www.w3.org/2000/svg" xmlns:xlink="http://www.w3.org/1999/xlink" x="0px" y="0px"
	 viewBox="0 0 612 792" style="enable-background:new 0 0 612 792;" xml:space="preserve">
<style type="text/css">
	.st0{fill:#DBDCDD;stroke:#000000;stroke-miterlimit:10;}
	.st1{fill:#F2F2F3;stroke:#000000;stroke-miterlimit:10;}
</style>
<g>
	<path class="st0" d="M282.74,527.13c1.78-134.61-4.12-270.24,45.18-398.56c3.02-7.87,3.73-19.58,14.53-18.68
		c10.38,0.86,10.99,11.88,12.18,20.53c1.05,7.68,1.82,15.63,1.19,23.32c-8.98,109.97,1.5,218.34,22.43,325.89
		c5.84,17.62,1.52,27.63-17.24,26.22c-8.2-0.62-15.88,1.82-23.69,3.54C317.07,507.82,304.18,532.93,282.74,527.13z"/>
	<path class="st1" d="M283.32,497.5c9.24-11.01,20.71-19.7,34.39-23.73c23.24-6.84,53.06-6.62,66.82,17.2
		c33.62,58.19-1.06,142.18-66.51,161.08c-19.55,5.65-31.48-4.98-41.32-19.65c-17.02-25.37-25.83-54.13-18.25-84.4
		C262.77,530.73,271.09,512.08,283.32,497.5z"/>
</g>
</svg>
