<?xml version="1.0" encoding="utf-8"?>
<!-- Generator: Adobe Illustrator 26.0.1, SVG Export Plug-In . SVG Version: 6.00 Build 0)  -->
<svg version="1.1" id="Layer_1" xmlns="http://www.w3.org/2000/svg" xmlns:xlink="http://www.w3.org/1999/xlink" x="0px" y="0px"
	 viewBox="0 0 612 792" style="enable-background:new 0 0 612 792;" xml:space="preserve">
<style type="text/css">
	.st0{fill:#C4C5C6;stroke:#000000;stroke-miterlimit:10;}
	.st1{fill:#DBDCDD;stroke:#000000;stroke-miterlimit:10;}
	.st2{fill:#F2F2F3;stroke:#000000;stroke-miterlimit:10;}
</style>
<g>
	<path class="st0" d="M361.18,316.52c-4.46,20.26-14.82,37.95-25.84,54.93c-5.22,8.05-8.42,23.32-18.96,21.54
		c-11.63-1.96-19.03-14.88-23.66-26.41c-1.95-4.84-0.31-11.12-0.3-16.75c38.56-44.96,35.21-95.65,20.96-148.27
		c-2.89-10.68-18.06-24.56-2.02-32.66c12.38-6.24,23.42,11.85,30.54,19.46c14.6,15.62,17.49,39.27,33.62,53.12
		c7.07,6.07,6.87,9.04,6.79,18.05C373.09,277.73,369.86,298.14,361.18,316.52z"/>
	<path class="st1" d="M393.79,197.64c2.03-8.61,1.38-21.88,12.31-21.99c12.25-0.12,14.74,13.47,16.09,23.28
		c4.1,29.74,2.56,59.41-3.46,88.93c-13.5,66.21-29.43,132.19-22.76,200.72c-52.72-11.57-106.21-5.54-159.38-6.99
		c-0.9-71.08-0.78-141.65-27.17-210.19c-13.31-34.56,1.18-70.16,19.22-102c3.3-5.82,7.38-12.28,15.72-10.48
		c5.2,1.13,7.54,6.35,6.28,10.69C233.03,230.52,269.9,282.65,288.43,338c3.66,10.93,14.03,29.56,26.91,32.42
		c11.98,2.66,19.62-19.49,23.64-27.24C338.98,343.19,376.29,271.97,393.79,197.64z"/>
	<path class="st2" d="M236.6,481.59c54.11-20.22,107.53-24.53,159.38,6.99c15.4,38.45,10,58.19-21.65,79.03
		c-8.62,5.67-17.62,10.84-25.79,17.1c-34.4,26.35-66.2,29.26-90.34,7.8C225.52,563.47,216.11,515.17,236.6,481.59z"/>
</g>
</svg>
