<?xml version="1.0" encoding="utf-8"?>
<!-- Generator: Adobe Illustrator 26.0.1, SVG Export Plug-In . SVG Version: 6.00 Build 0)  -->
<svg version="1.1" id="Layer_1" xmlns="http://www.w3.org/2000/svg" xmlns:xlink="http://www.w3.org/1999/xlink" x="0px" y="0px"
	 viewBox="0 0 612 792" style="enable-background:new 0 0 612 792;" xml:space="preserve">
<style type="text/css">
	.st0{fill:#DCDDDD;stroke:#000000;stroke-miterlimit:10;}
	.st1{fill:#F2F3F4;stroke:#000000;stroke-miterlimit:10;}
	.st2{fill:#C6C7C8;stroke:#000000;stroke-miterlimit:10;}
</style>
<g>
	<path class="st0" d="M232.53,481.83c11.29-62.89,13.11-123.35-17.89-183.73c-27.85-54.24-17.65-112.77,1.11-168.94
		c3.58-10.73,8.61-26.55,20.9-24.26c15.76,2.94,8.21,19.22,6.19,29.22c-10.15,50.14-0.92,95.71,29.21,137.02
		c22.65,11.92,32.47,34.07,44.62,59.26c15.73-29.3,17.95-62.36,42.74-82.86c13.24-38.33,32.44-75.04,31.25-117.29
		c-0.18-6.21,0.78-13.65,8.27-15.1c10.39-2.01,14.93,6.15,17.91,14.03c15.27,40.38,10.67,80.59-4.69,119.4
		c-22.41,56.61-29.71,134.44-25.56,194.83c2.76,32-0.08,14.57-30.18,16.48c-29.81,1.89-60.32-5.59-89.27,6.63
		C254.91,469.93,248.25,486.3,232.53,481.83z"/>
	<path class="st1" d="M384.91,459.65c4.3,2.21,7.92,5.57,10.42,9.71c15.94,26.38,20.42,56.42,23.57,86.32
		c2.44,23.15-5.63,43.79-27.67,55.81c-20.85,11.37-35.36,1.69-48.69-14.58c-9.99-12.2-19.53-5.2-29.74,2.23
		c-42.95,31.26-82.19,15.01-90.06-38.02c-3.98-26.84-6.36-54.47,9.8-79.28C232.53,481.83,307.9,420.13,384.91,459.65z"/>
	<path class="st2" d="M359.42,247.54c-12.01,34.92-22.42,70.48-44,111.11c-8.82-36.96-30.02-59.94-43.36-87.51
		c17.8-16.3,12.64-38.55,14.33-58.62c2.7-32.22,1.45-64.97,15.19-95.31c3.84-8.48,8.49-19.53,19.33-17.64
		c12.81,2.23,9.06,14.95,8.42,23.54c-2.61,34.89,0.53,69,12.78,101.82C345.4,233.75,344.68,246.98,359.42,247.54z"/>
</g>
</svg>
