<?xml version="1.0" encoding="utf-8"?>
<!-- Generator: Adobe Illustrator 26.0.1, SVG Export Plug-In . SVG Version: 6.00 Build 0)  -->
<svg version="1.1" id="Layer_1" xmlns="http://www.w3.org/2000/svg" xmlns:xlink="http://www.w3.org/1999/xlink" x="0px" y="0px"
	 viewBox="0 0 612 792" style="enable-background:new 0 0 612 792;" xml:space="preserve">
<style type="text/css">
	.st0{fill:#DBDCDD;stroke:#000000;stroke-miterlimit:10;}
	.st1{fill:#F2F2F3;stroke:#000000;stroke-miterlimit:10;}
</style>
<g>
	<path class="st0" d="M438.08,590.02c-8.94,21.05-22.78,11.38-28.85-4.25c-6.75-17.35-10.5-35.86-15.71-53.82
		c-5.2-17.94-8.89-36.57-16.28-53.57c-11.38-26.19-28.68-47.8-60.61-48.26c-33.12-0.47-43.1,25.58-52.53,50.26
		c-16.06,41.99-17.41,84.92-7.61,128.86c2.68,12.01,10.26,30.12-7.45,35.97c-15.31,5.06-24.43-10.22-31.2-21.75
		c-17.35-29.56-26.84-62.14-27.51-96.24c-1.22-61.59,16.66-119.5,37.82-176.51c17.54-9.99,30.23,7.78,46.01,7.92
		c26.22,5.52,52.33,9.29,77.7-3.51c19.81,2.55,34.47-18.69,55.2-12.11c10.45,45.95,20.72,91.95,37.27,136.11
		c6.58,17.57,8.85,36.48,6.77,55.13C449.14,551.63,445.38,572.82,438.08,590.02z"/>
	<path class="st1" d="M227.12,350.7c0,0,86.65,37.72,179.91-7.7c24.5-35.09,22.27-69.22-6.33-96.96
		c-28.4-27.54-63.89-31.45-94.13-8.36c-8.83,6.74-13.79,10.58-25.48,4.95c-32.58-15.7-60.73-1.72-68.86,33.78
		c-6.12,26.71-0.94,51.99,15.9,74.28"/>
</g>
</svg>
