<?xml version="1.0" encoding="utf-8"?>
<!-- Generator: Adobe Illustrator 26.0.1, SVG Export Plug-In . SVG Version: 6.00 Build 0)  -->
<svg version="1.1" id="Layer_1" xmlns="http://www.w3.org/2000/svg" xmlns:xlink="http://www.w3.org/1999/xlink" x="0px" y="0px"
	 viewBox="0 0 612 792" style="enable-background:new 0 0 612 792;" xml:space="preserve">
<style type="text/css">
	.st0{fill:#DBDCDC;stroke:#000000;stroke-miterlimit:10;}
	.st1{fill:#F2F2F3;stroke:#000000;stroke-miterlimit:10;}
</style>
<g>
	<path class="st0" d="M382.31,375.59c3.87,58.25,15.81,115.87,14.4,174.47c-0.33,13.62-4.79,27.37-8.91,40.57
		c-2.29,7.34-5.19,18.05-14.22,18.05c-12.29,0.01-11.87-12.29-12.9-20.84c-4.94-40.95-28.01-75.95-37.32-115.51
		c-2.23-9.47-6.86-21.64-20.21-20.34c-13.73,1.34-14.34,14.83-15.22,24.21c-4.25,45.05-29.58,85.9-25.67,132.57
		c0.64,7.59-0.36,18.94-8.77,20.75c-10.99,2.36-14.61-8.86-18.6-17.23c-8.1-16.97-14.64-34.99-12.99-53.58
		c5.25-59.13,12.15-118.11,18.42-177.15c6.39-4.24,13.12-3.5,19.96-1.51c34.48,13.62,68.88,23.33,102.58-2.15
		C369.04,374.66,375.29,371.74,382.31,375.59z"/>
	<path class="st1" d="M382.31,375.59c-1.76,3.05-11.52,6.82-14.63,8.77c-17.14,10.75-32.49,17.14-53.18,15.71
		c-13.38-0.93-26.49-3.88-39.53-6.88c-6.26-1.44-13.09-2.26-19.17-4.3c-3.33-1.11-13.54-4.55-15.49-7.33
		c-9.3-13.25-17.3-26.79-20.65-43.25c-10.79-52.96,21.55-96.66,74.99-100.35c8.79-0.61,15.8,2.71,21.88,8.33
		c8.16,7.54,14.83,12.03,26.53,3.36c22.21-16.47,37.24-3.37,45.94,16.93C404.85,303.59,402.6,340.36,382.31,375.59z"/>
</g>
</svg>
