<?xml version="1.0" encoding="utf-8"?>
<!-- Generator: Adobe Illustrator 26.0.1, SVG Export Plug-In . SVG Version: 6.00 Build 0)  -->
<svg version="1.1" id="Layer_1" xmlns="http://www.w3.org/2000/svg" xmlns:xlink="http://www.w3.org/1999/xlink" x="0px" y="0px"
	 viewBox="0 0 612 792" style="enable-background:new 0 0 612 792;" xml:space="preserve">
<style type="text/css">
	.st0{fill:#DBDBDC;stroke:#000000;stroke-miterlimit:10;}
	.st1{fill:#F1F1F2;stroke:#000000;stroke-miterlimit:10;}
</style>
<g>
	<path class="st0" d="M341.46,282.84c9.45,40.35,1.65,80.4-8.03,118.68c-17.95,70.94-22.63,141.7-13.1,213.99
		c1.73,13.16,8.81,32.7-8.46,37.91c-16.05,4.85-23.64-13.67-29.88-25.95c-7.03-13.84-13.4-28.89-15.81-44.09
		c-15.33-96.89-19.1-194.9-26.63-292.55c19.42-4.42,23.27,13.31,32.8,23.01c28.03,23.36,38.89,4.64,47.52-19.49
		C324.87,286.4,329.76,278.13,341.46,282.84z"/>
	<path class="st1" d="M341.46,282.84c19.67-39.77,23.97-79.42-2.05-118.25c-20.53-30.65-46.89-34.99-76.1-13.15
		c-49.16,36.75-57.39,85.05-23.75,139.39C239.56,290.83,299.05,403.18,341.46,282.84z"/>
</g>
</svg>
