<?xml version="1.0" encoding="utf-8"?>
<!-- Generator: Adobe Illustrator 26.0.1, SVG Export Plug-In . SVG Version: 6.00 Build 0)  -->
<svg version="1.1" id="Layer_1" xmlns="http://www.w3.org/2000/svg" xmlns:xlink="http://www.w3.org/1999/xlink" x="0px" y="0px"
	 viewBox="0 0 612 792" style="enable-background:new 0 0 612 792;" xml:space="preserve">
<style type="text/css">
	.st0{fill:#DADBDC;stroke:#000000;stroke-miterlimit:10;}
	.st1{fill:#F1F1F2;stroke:#000000;stroke-miterlimit:10;}
</style>
<g>
	<path class="st0" d="M355.78,229.51c-5.38,107.23-10.56,214.47-16.46,321.66c-0.64,11.63-4.34,23.51-8.65,34.34
		c-6.04,15.18-15.38,35.26-31.02,31.3c-22.18-5.61-7.23-27.56-5.62-41.23c3.75-31.78,1.94-62.9-5.22-93.36
		c-18.09-77-26.31-155.52-33.68-234.24c-2.06-6.47,0.29-13.66,5.74-13.03C292.88,238.64,323.8,223.26,355.78,229.51z"/>
	<path class="st1" d="M254.06,257.29c-4.2-1.34-8.02-3.69-11.12-6.82c-31.82-32.1-29.43-53.09,15.72-101.98
		c26.76-28.97,60.04-13.41,87.66,1.75c31.95,17.54,34.34,49.49,11.13,89.59C326.92,273.82,290.98,269.04,254.06,257.29z"/>
</g>
</svg>
