<?xml version="1.0" encoding="utf-8"?>
<!-- Generator: Adobe Illustrator 26.0.1, SVG Export Plug-In . SVG Version: 6.00 Build 0)  -->
<svg version="1.1" id="Layer_1" xmlns="http://www.w3.org/2000/svg" xmlns:xlink="http://www.w3.org/1999/xlink" x="0px" y="0px"
	 viewBox="0 0 612 792" style="enable-background:new 0 0 612 792;" xml:space="preserve">
<style type="text/css">
	.st0{fill:#DADBDB;stroke:#000000;stroke-miterlimit:10;}
	.st1{fill:#F0F0F1;stroke:#000000;stroke-miterlimit:10;}
</style>
<g>
	<path class="st0" d="M361.31,240.87c11.02,14.53,1.85,29.44-0.86,43.16c-22.62,114.78-27.3,229.51-4.18,344.91
		c3.06,15.28,12.3,37.73-5.74,45.45c-21.57,9.23-28.67-15.56-36.9-30.45c-29.38-53.13-45.77-111.03-49.86-171.99
		c-6.27-93.57,2.85-187.79-9.99-281.15c17.44-5.11,22.3,10.5,28.36,20.84C301.33,244.29,323.91,263.64,361.31,240.87z"/>
	<path class="st1" d="M361.31,258.27c-31.39,38.69-43.52,37.98-77.93-5.78c-10.61-13.5-19.77-28.16-29.59-42.29
		c-13.91-28.16-19.64-56.06,12.12-75.67c34.72-21.45,70.36-28.64,106.54-0.36c31.32,24.47,24.18,52.02,9.77,81.23
		C375.2,229.67,368.28,243.98,361.31,258.27z"/>
</g>
</svg>
