<?xml version="1.0" encoding="utf-8"?>
<!-- Generator: Adobe Illustrator 26.0.1, SVG Export Plug-In . SVG Version: 6.00 Build 0)  -->
<svg version="1.1" id="Layer_1" xmlns="http://www.w3.org/2000/svg" xmlns:xlink="http://www.w3.org/1999/xlink" x="0px" y="0px"
	 viewBox="0 0 612 792" style="enable-background:new 0 0 612 792;" xml:space="preserve">
<style type="text/css">
	.st0{fill:#DADBDB;stroke:#000000;stroke-miterlimit:10;}
	.st1{fill:#F0F0F1;stroke:#000000;stroke-miterlimit:10;}
</style>
<g>
	<path class="st0" d="M372.37,196.87c-15.72,102.89,2.69,207.77-16.72,310.45c-7.85,41.52-21.99,80.55-43.2,116.56
		c-6.67,11.34-13.6,27.63-29.92,20.59c-14.02-6.05-8.06-21.98-6.73-33.43c4.28-36.93,11.97-73.53,14.6-110.55
		c4.63-65.29-1.69-130.06-12.81-194.55c-3.52-20.42-14.91-41-4.82-62.82c37.26,28.21,55.04,0.81,73.39-27.3
		C352.21,206.56,356.38,192.13,372.37,196.87z"/>
	<path class="st1" d="M372.37,214.44c-7.3,10.75-14.52,21.56-21.93,32.23c-30.81,44.42-41.93,46.15-77.67,12.21
		c-6.46-13.22-12.87-26.47-19.38-39.67c-13.35-27.04-19.94-52.53,9.08-75.17c33.53-26.16,66.54-19.5,98.7,0.35
		C390.58,162.57,385.25,188.39,372.37,214.44z"/>
</g>
</svg>
