<?xml version="1.0" encoding="utf-8"?>
<!-- Generator: Adobe Illustrator 26.0.1, SVG Export Plug-In . SVG Version: 6.00 Build 0)  -->
<svg version="1.1" id="Layer_1" xmlns="http://www.w3.org/2000/svg" xmlns:xlink="http://www.w3.org/1999/xlink" x="0px" y="0px"
	 viewBox="0 0 612 792" style="enable-background:new 0 0 612 792;" xml:space="preserve">
<style type="text/css">
	.st0{fill:#DADBDC;stroke:#000000;stroke-miterlimit:10;}
	.st1{fill:#F1F1F2;stroke:#000000;stroke-miterlimit:10;}
</style>
<g>
	<path class="st0" d="M330.14,281.38c-7,73.5-14.77,146.83-32.07,218.7c-7.87,32.71-9.31,66.04-2.66,99.54
		c1.73,8.7,7.31,20.71-3.73,25.84c-12.1,5.62-19.38-5.98-25.58-14.48c-9.84-13.51-15.2-29.6-16.12-46.52
		c-5.43-100.1-10.39-200.23-15.51-300.35c30.41-5.83,59.82,8.51,90.24,5.1C329.89,268.63,332.11,275.34,330.14,281.38z"/>
	<path class="st1" d="M236.09,270.77c-2.13-2.15-3.93-4.63-5.38-7.29c-19.7-36.25-16.59-65.13,12.7-81.25
		c26.25-14.44,57.89-29.22,83.35-1.75c42.12,45.44,45.08,65.68,16.59,95.34c-3.92,4.08-8.83,7.11-14.23,8.8
		C296.03,294.91,263.84,298.75,236.09,270.77z"/>
</g>
</svg>
