<?xml version="1.0" encoding="utf-8"?>
<!-- Generator: Adobe Illustrator 26.0.1, SVG Export Plug-In . SVG Version: 6.00 Build 0)  -->
<svg version="1.1" id="Layer_1" xmlns="http://www.w3.org/2000/svg" xmlns:xlink="http://www.w3.org/1999/xlink" x="0px" y="0px"
	 viewBox="0 0 612 792" style="enable-background:new 0 0 612 792;" xml:space="preserve">
<style type="text/css">
	.st0{fill:#DBDBDC;stroke:#000000;stroke-miterlimit:10;}
	.st1{fill:#F1F1F2;stroke:#000000;stroke-miterlimit:10;}
</style>
<g>
	<path class="st0" d="M351.07,322.6c-7.26,94.15-10.91,188.65-25.58,282.09c-3.13,19.91-10.3,39.12-23.29,55.28
		c-5.45,6.78-10.91,15.76-21.09,13c-11.06-3-9.36-13.87-9-22.26c0.7-16.36,2.29-32.71,4.02-49.01c5.66-53.32,0.2-105.47-12.59-157.5
		c-10.39-42.25-18.81-85.23-10.73-129.29c11.39-4.44,15.99,3.59,20.81,11.31c8.56,23.39,19.19,41.43,46.06,18.32
		C328.7,335.14,332.59,318.26,351.07,322.6z"/>
	<path class="st1" d="M351.07,322.6c32.42-52.37,24.49-98.94-22.91-134.38c-28.16-21.05-53.58-16.88-73.37,12.67
		c-25.08,37.44-20.95,75.66-1.98,114.01C252.82,314.9,287.02,423.59,351.07,322.6z"/>
</g>
</svg>
