<?xml version="1.0" encoding="utf-8"?>
<!-- Generator: Adobe Illustrator 26.0.1, SVG Export Plug-In . SVG Version: 6.00 Build 0)  -->
<svg version="1.1" id="Layer_1" xmlns="http://www.w3.org/2000/svg" xmlns:xlink="http://www.w3.org/1999/xlink" x="0px" y="0px"
	 viewBox="0 0 612 792" style="enable-background:new 0 0 612 792;" xml:space="preserve">
<style type="text/css">
	.st0{fill:#DBDCDC;stroke:#000000;stroke-miterlimit:10;}
	.st1{fill:#F2F2F3;stroke:#000000;stroke-miterlimit:10;}
</style>
<g>
	<path class="st0" d="M379.17,337.21c11.41,3.53,7.63,12.8,7.13,20.26c-3.24,48.07,2.81,117.01,13.84,163.93
		c9.31,39.6,4.3,78.64-14.08,115.45c-4.41,8.83-10.18,19.06-20.65,15.51c-5.03-1.71-9.78-13.99-9.2-21.03
		c4.63-56.27-25.12-105.74-30.67-159.96c-1.12-10.91-1.69-26.91-18.35-27.9c-15.65-0.93-20.84,13.36-23.45,24.44
		c-11.24,47.81-39.57,90.11-44.31,139.92c-0.78,8.2-2.7,18.36-11.38,20.07c-11.94,2.35-15.48-9.45-18.26-17.83
		c-5.11-15.43-11.03-31.36-11.81-47.31c-3.44-70.35,12.02-139.37,16.59-209.21c8.06-4.31,15.14-0.92,22.21,2.71
		c37.2,28.41,75.99,20.05,115.05,4.8C360.97,357.48,369.57,334.13,379.17,337.21z"/>
	<path class="st1" d="M379.68,358.91c-5.26,4.52-13.05,7.5-19.33,9.76c-19.87,7.16-43.3,12.28-64.37,13.78
		c-24.53,1.75-42.6-6.78-63.21-18.52c-6.07-3.46-12.14-6.91-18.2-10.37c-26.41-41.37-25.12-85.07-7.72-128.46
		c9.67-24.12,27.2-38.18,54.33-20.14c6.7,4.46,12.6,10.96,21.39,3.91c12.59-10.1,24.77-24.1,43.05-14.86
		c25.01,12.64,52.39,23.38,72.79,41.62c16.99,15.19,13.84,44.54,9.28,64.29c-3.2,13.82-8.31,27.25-15.07,39.73
		c-3.16,5.84-6.66,12.88-11.28,17.72C380.81,357.89,380.26,358.41,379.68,358.91z"/>
</g>
</svg>
