<?xml version="1.0" encoding="utf-8"?>
<!-- Generator: Adobe Illustrator 26.0.1, SVG Export Plug-In . SVG Version: 6.00 Build 0)  -->
<svg version="1.1" id="Layer_1" xmlns="http://www.w3.org/2000/svg" xmlns:xlink="http://www.w3.org/1999/xlink" x="0px" y="0px"
	 viewBox="0 0 612 792" style="enable-background:new 0 0 612 792;" xml:space="preserve">
<style type="text/css">
	.st0{fill:#DBDCDD;stroke:#000000;stroke-miterlimit:10;}
	.st1{fill:#F2F2F3;stroke:#000000;stroke-miterlimit:10;}
</style>
<g>
	<path class="st0" d="M179.36,466.25c3.18-9.89,9.53-19.23,13.35-28.84c5.09-12.79,9.13-25.98,12.64-39.28
		c7.02-26.67,11.88-53.85,18.97-80.5c19.52-9.82,32.41,9.86,49.48,11.08c27.28,12.18,54.32,12.02,81.11-1.45
		c15.22,0.47,30.03-9.41,45.59-2.06c25.52,75.43,53.43,150.61,26.37,232.02c-3.1,9.33-6.19,18.86-10.88,27.43
		c-8.13,14.86-16.82,36.56-35.95,30.51c-19.63-6.21-8.74-27.66-5.99-42.17c9-47.52,5.3-93.28-16.43-136.74
		c-19.84-39.69-55.33-44.57-86.16-12.76c-18.89,19.49-25.17,44.63-31.67,69.67c-3.09,11.91-5.28,24.06-8.44,35.94
		c-2.71,10.17-5.67,33.72-16.71,39.22c-6.57,3.27-14.09-1.81-19.15-5.68c-6.72-5.13-14.07-9.93-16.71-18.4
		c-6.97-22.36-5.29-50.76-0.63-73.39C178.45,469.31,178.87,467.78,179.36,466.25z"/>
	<path class="st1" d="M400.48,325.2c16.57-21.99,21.67-46.93,15.64-73.28c-8.02-35.01-35.7-48.77-67.82-33.29
		c-11.51,5.55-16.4,1.73-25.09-4.92c-29.75-22.76-64.73-18.89-92.68,8.28c-28.15,27.36-30.34,61.04-6.22,95.64
		C224.31,317.63,294.02,368.7,400.48,325.2z"/>
</g>
</svg>
